<svg width="219" height="219" viewBox="0 0 219 219" fill="none" xmlns="http://www.w3.org/2000/svg">
<path d="M11.5781 209.301H6.49219L7.57031 206.219H10.3828L6.22266 195.449H11.2734L17.4727 211H12.2344L11.5781 209.301ZM5.10938 211H0.105469L5.66016 196.152L7.95703 202.328L5.10938 211ZM18.9492 211V195.449H24.1289V211H18.9492ZM24.9492 198.555V195.449H30.8672L33.9844 198.555V203.219L31.5938 205.609L31.4297 205.281L26.5664 205.926L26.7539 206.336H24.9492V203.324H28.8398V198.555H24.9492ZM34.5117 211H28.9805L26.7539 206.336H30.8672L31.5938 205.609L34.5117 211ZM48.5742 211V207.895H52.418V198.555H48.5742V195.449H54.4922L57.6094 198.555V207.895L54.4922 211H48.5742ZM42.5742 195.449H47.7539V211H42.5742V195.449ZM64.9102 211H62.8359L59.7305 207.895V201.66L62.8359 198.555H64.9102V211ZM65.7305 206.008V203.84H68.4609V201.66H65.7305V198.555H70.125L73.2305 201.66V206.008H65.7305ZM65.7305 211V208.094H72.6914V209.441L71.1445 211H65.7305ZM78.1523 198.555H80.2266V202.949H86.1328L88.8281 205.668V208.094L85.9336 211H83.6484V206.301H78.0469L75.3516 203.711V201.344L78.1523 198.555ZM80.5312 208.715H82.8281V211L77.4961 210.988L75.3398 208.434V207.438H80.5312V208.715ZM83.6484 200.84H81.0469V198.555H86.5547L88.4062 200.406V201.812H83.6484V200.84ZM90.8789 198.555H96.0703V211H90.8789V198.555ZM90.8789 193.703H96.0703V197.008H90.8789V193.703ZM106.723 201.66H104.426V198.555H108.797L111.902 201.66V212.23L108.797 215.359H101.965L100.406 213.789V212.641H106.723V201.66ZM105.902 208.094V209.465L104.355 211H101.531L98.4258 207.895V201.66L101.531 198.555H103.605V208.094H105.902ZM114.234 211V198.555H119.461V211H114.234ZM122.531 201.66H120.305V200.301L122.039 198.555H124.922L127.723 201.355V211H122.531V201.66ZM146.098 211V205.176H139.371L136.254 202.059V198.555L139.371 195.449H141.129V200.969H148.277L151.289 204.086V207.895L148.184 211H146.098ZM141.949 198.25V195.449H148.172L150.867 198.156V199.809H146.098V198.25H141.949ZM136.254 206.336H141.434V208.188H145.277V211H138.867L136.254 207.895V206.336ZM158.977 207.895H162.398V211H156.914L153.797 207.895V201.66H152.766V198.555H153.797V197.207L158.977 195.449V207.895ZM159.797 201.66V198.555H162.586V201.66H159.797ZM177.773 198.555V211H172.594V198.555H177.773ZM169.465 207.895H171.773V209.441L170.273 211H167.402L164.285 207.895V198.555H169.465V207.895ZM193.781 193.809V211H188.602V193.809H193.781ZM185.285 208.094H187.781V209.77L186.551 211H182.906L180.105 208.199V201.355L182.906 198.555H187.781V201.66H185.285V208.094ZM196.23 198.555H201.422V211H196.23V198.555ZM196.23 193.703H201.422V197.008H196.23V193.703ZM217.758 207.895L214.652 211H211.184V208.094H212.473V201.66H211.184V198.555H214.652L217.758 201.66V207.895ZM209.016 208.094H210.363V211H206.883L203.777 207.895V201.66L206.883 198.555H210.363V201.66H209.016V208.094Z" fill="white"/>
<g filter="url(#filter0_d)">
<rect x="62.1294" y="58.9026" width="89.6283" height="6.86347" rx="3.43173" stroke="white" stroke-width="2"/>
<mask id="path-3-inside-1" fill="white">
<path fill-rule="evenodd" clip-rule="evenodd" d="M146.683 68.4721V68.3987L66.9979 68.3987V68.4639L41.3026 93.9821L41.3011 93.9803L38 97.1773L103.551 173.434L103.54 173.447L106.605 177L176 97.548L172.852 94.3349L172.793 94.402L146.683 68.4721ZM169.797 97.8221L144.701 72.8991L68.9723 72.8991L44.267 97.434L106.572 169.986L169.797 97.8221Z"/>
</mask>
<path d="M146.683 68.4721H144.683V69.3046L145.274 69.8912L146.683 68.4721ZM146.683 68.3987H148.683V66.3987L146.683 66.3987L146.683 68.3987ZM66.9979 68.3987L66.9979 66.3987L64.9979 66.3987V68.3987H66.9979ZM66.9979 68.4639L68.4072 69.883L68.9979 69.2964V68.4639H66.9979ZM41.3026 93.9821L39.785 95.2848L41.1859 96.9167L42.7119 95.4012L41.3026 93.9821ZM41.3011 93.9803L42.8186 92.6776L41.4353 91.0661L39.9097 92.5436L41.3011 93.9803ZM38 97.1773L36.6086 95.7406L35.2548 97.0518L36.4833 98.481L38 97.1773ZM103.551 173.434L105.055 174.753L106.199 173.447L105.068 172.131L103.551 173.434ZM103.54 173.447L102.036 172.129L100.89 173.437L102.025 174.754L103.54 173.447ZM106.605 177L105.09 178.306L106.595 180.051L108.111 178.316L106.605 177ZM176 97.548L177.506 98.8637L178.724 97.4701L177.429 96.1484L176 97.548ZM172.852 94.3349L174.281 92.9352L172.77 91.3933L171.348 93.0169L172.852 94.3349ZM172.793 94.402L171.384 95.8211L172.895 97.3214L174.298 95.7199L172.793 94.402ZM144.701 72.8991L146.11 71.48L145.525 70.8991L144.701 70.8991L144.701 72.8991ZM169.797 97.8221L171.301 99.1401L172.539 97.727L171.206 96.403L169.797 97.8221ZM68.9723 72.8991L68.9723 70.8991L68.1479 70.8991L67.563 71.48L68.9723 72.8991ZM44.267 97.434L42.8577 96.0149L41.5378 97.3258L42.7497 98.737L44.267 97.434ZM106.572 169.986L105.055 171.289L106.557 173.038L108.076 171.304L106.572 169.986ZM148.683 68.4721V68.3987H144.683V68.4721H148.683ZM146.683 66.3987L66.9979 66.3987L66.9979 70.3987L146.683 70.3987L146.683 66.3987ZM64.9979 68.3987V68.4639H68.9979V68.3987H64.9979ZM65.5886 67.0448L39.8933 92.563L42.7119 95.4012L68.4072 69.883L65.5886 67.0448ZM42.8202 92.6794L42.8186 92.6776L39.7835 95.283L39.785 95.2848L42.8202 92.6794ZM39.9097 92.5436L36.6086 95.7406L39.3914 98.614L42.6925 95.417L39.9097 92.5436ZM36.4833 98.481L102.034 174.738L105.068 172.131L39.5167 95.8736L36.4833 98.481ZM102.047 172.116L102.036 172.129L105.044 174.765L105.055 174.753L102.047 172.116ZM102.025 174.754L105.09 178.306L108.119 175.694L105.054 172.141L102.025 174.754ZM108.111 178.316L177.506 98.8637L174.494 96.2324L105.098 175.684L108.111 178.316ZM177.429 96.1484L174.281 92.9352L171.424 95.7345L174.571 98.9476L177.429 96.1484ZM171.348 93.0169L171.289 93.0841L174.298 95.7199L174.357 95.6528L171.348 93.0169ZM174.203 92.9829L148.093 67.053L145.274 69.8912L171.384 95.8211L174.203 92.9829ZM143.291 74.3182L168.388 99.2412L171.206 96.403L146.11 71.48L143.291 74.3182ZM68.9723 74.8991L144.701 74.8991L144.701 70.8991L68.9723 70.8991L68.9723 74.8991ZM45.6763 98.8531L70.3816 74.3182L67.563 71.48L42.8577 96.0149L45.6763 98.8531ZM108.089 168.683L45.7843 96.131L42.7497 98.737L105.055 171.289L108.089 168.683ZM168.293 96.5042L105.068 168.668L108.076 171.304L171.301 99.1401L168.293 96.5042Z" fill="white" mask="url(#path-3-inside-1)"/>
<mask id="path-5-outside-2" maskUnits="userSpaceOnUse" x="39.7959" y="0" width="134" height="59" fill="black">
<rect fill="white" x="39.7959" width="134" height="59"/>
<path fill-rule="evenodd" clip-rule="evenodd" d="M107.928 13.5802C110.11 12.828 111.671 10.8141 111.671 8.44785C111.671 5.43909 109.147 3 106.033 3C102.92 3 100.396 5.43909 100.396 8.44785C100.396 11.029 102.253 13.1909 104.747 13.7533C103.33 22.0518 100.124 33.4675 93.4135 34.8581C86.2332 36.3463 79.7162 34.0645 73.9576 23.6418C75.2802 22.6448 76.1307 21.0902 76.1307 19.3437C76.1307 16.3349 73.6067 13.8958 70.4932 13.8958C67.3798 13.8958 64.8558 16.3349 64.8558 19.3437C64.8558 22.3525 67.3798 24.7915 70.4932 24.7915C70.6804 24.7915 70.8655 24.7827 71.048 24.7655C71.8094 30.4938 71.3147 37.4908 66.3667 40.5428C64.5601 41.504 59.4749 41.3095 52.5435 33.9676C53.4906 32.993 54.0708 31.6814 54.0708 30.2388C54.0708 27.23 51.5469 24.7909 48.4334 24.7909C45.3199 24.7909 42.7959 27.23 42.7959 30.2388C42.7959 33.2476 45.3199 35.6866 48.4334 35.6866C49.2341 35.6866 49.9959 35.5253 50.6858 35.2344C55.3924 40.7321 61.8217 48.9122 64.8641 55.1099H149.385C151.416 50.9648 156.605 42.0385 162.94 35.271C163.607 35.5388 164.337 35.6866 165.104 35.6866C168.217 35.6866 170.741 33.2476 170.741 30.2388C170.741 27.23 168.217 24.7909 165.104 24.7909C161.991 24.7909 159.467 27.23 159.467 30.2388C159.467 31.632 160.008 32.903 160.898 33.8664C157.872 36.7641 154.286 39.7435 152.391 40.5428C149.636 41.7046 139.619 43.0299 141.872 30.2393C141.701 30.2393 142.336 27.6981 143.122 24.7892C143.178 24.7907 143.234 24.7915 143.29 24.7915C146.404 24.7915 148.928 22.3525 148.928 19.3437C148.928 16.3349 146.404 13.8958 143.29 13.8958C140.177 13.8958 137.653 16.3349 137.653 19.3437C137.653 20.8501 138.286 22.2138 139.308 23.2C135.849 28.713 131.105 34.9775 124.042 35.3057C123.911 35.3057 123.776 35.3083 123.637 35.3109H123.636H123.636H123.636H123.636C120.778 35.3653 115.885 35.4583 108.064 14.6063L107.928 13.5802Z"/>
</mask>
<path d="M107.928 13.5802L106.95 10.7441L104.633 11.5433L104.954 13.9733L107.928 13.5802ZM104.747 13.7533L107.704 14.2581L108.183 11.4528L105.407 10.8268L104.747 13.7533ZM93.4135 34.8581L94.0223 37.7957L94.0224 37.7957L93.4135 34.8581ZM73.9576 23.6418L72.1518 21.2461L70.0726 22.8135L71.3318 25.0925L73.9576 23.6418ZM71.048 24.7655L74.0219 24.3702L73.6413 21.5074L70.7661 21.7788L71.048 24.7655ZM66.3667 40.5428L67.7757 43.1913L67.8602 43.1464L67.9417 43.0962L66.3667 40.5428ZM52.5435 33.9676L50.3921 31.8767L48.3893 33.9375L50.362 36.027L52.5435 33.9676ZM50.6858 35.2344L52.9647 33.2834L51.5395 31.6187L49.5202 32.4701L50.6858 35.2344ZM64.8641 55.1099L62.1711 56.4319L62.9948 58.1099H64.8641V55.1099ZM149.385 55.1099V58.1099H151.256L152.079 56.4299L149.385 55.1099ZM162.94 35.271L164.059 32.4874L162.154 31.7215L160.75 33.2207L162.94 35.271ZM160.898 33.8664L162.973 36.033L165.101 33.9945L163.101 31.8302L160.898 33.8664ZM152.391 40.5428L153.556 43.3071L153.556 43.3071L152.391 40.5428ZM141.872 30.2393L144.827 30.7599L145.447 27.2393H141.872V30.2393ZM143.122 24.7892L143.207 21.7904L140.843 21.7233L140.226 24.0065L143.122 24.7892ZM139.308 23.2L141.849 24.7946L143.144 22.7314L141.391 21.0405L139.308 23.2ZM124.042 35.3057V38.3057H124.111L124.181 38.3024L124.042 35.3057ZM123.637 35.3109V38.3109H123.665L123.694 38.3104L123.637 35.3109ZM123.636 35.3109V32.3109H123.607L123.579 32.3115L123.636 35.3109ZM108.064 14.6063L105.09 14.9994L105.135 15.3391L105.255 15.6599L108.064 14.6063ZM108.671 8.44785C108.671 9.44171 108.011 10.3782 106.95 10.7441L108.906 16.4163C112.208 15.2778 114.671 12.1865 114.671 8.44785H108.671ZM106.033 6C107.587 6 108.671 7.19186 108.671 8.44785H114.671C114.671 3.68631 110.706 0 106.033 0V6ZM103.396 8.44785C103.396 7.19186 104.479 6 106.033 6V0C101.36 0 97.3957 3.68631 97.3957 8.44785H103.396ZM105.407 10.8268C104.185 10.5511 103.396 9.5296 103.396 8.44785H97.3957C97.3957 12.5284 100.322 15.8307 104.087 16.6798L105.407 10.8268ZM94.0224 37.7957C98.902 36.7844 101.923 32.3285 103.804 28.1206C105.772 23.7197 106.979 18.5062 107.704 14.2581L101.79 13.2484C101.098 17.2989 99.9938 21.9425 98.3265 25.6717C96.5728 29.594 94.6351 31.5412 92.8047 31.9206L94.0224 37.7957ZM71.3318 25.0925C74.3842 30.6173 77.8236 34.3281 81.769 36.3785C85.7699 38.4578 89.9311 38.6436 94.0223 37.7957L92.8047 31.9206C89.7156 32.5608 87.0281 32.3498 84.5358 31.0546C81.9879 29.7304 79.2897 27.089 76.5835 22.191L71.3318 25.0925ZM73.1307 19.3437C73.1307 20.085 72.7746 20.7767 72.1518 21.2461L75.7635 26.0374C77.7859 24.5129 79.1307 22.0954 79.1307 19.3437H73.1307ZM70.4932 16.8958C72.0475 16.8958 73.1307 18.0877 73.1307 19.3437H79.1307C79.1307 14.5821 75.166 10.8958 70.4932 10.8958V16.8958ZM67.8558 19.3437C67.8558 18.0877 68.939 16.8958 70.4932 16.8958V10.8958C65.8205 10.8958 61.8558 14.5821 61.8558 19.3437H67.8558ZM70.4932 21.7915C68.939 21.7915 67.8558 20.5997 67.8558 19.3437H61.8558C61.8558 24.1052 65.8205 27.7915 70.4932 27.7915V21.7915ZM70.7661 21.7788C70.6772 21.7872 70.5862 21.7915 70.4932 21.7915V27.7915C70.7747 27.7915 71.0539 27.7783 71.3299 27.7522L70.7661 21.7788ZM67.9417 43.0962C71.3208 41.0118 73.0151 37.6607 73.7738 34.3227C74.528 31.0041 74.4292 27.4348 74.0219 24.3702L68.0742 25.1608C68.4282 27.8245 68.4628 30.6179 67.923 32.9929C67.3876 35.3484 66.3605 37.0218 64.7917 37.9895L67.9417 43.0962ZM50.362 36.027C54.0567 39.9405 57.4426 42.1468 60.3657 43.1933C63.2143 44.2132 65.878 44.201 67.7757 43.1913L64.9576 37.8943C65.0487 37.8459 64.2666 38.217 62.3881 37.5444C60.584 36.8985 57.9616 35.3366 54.7249 31.9081L50.362 36.027ZM51.0708 30.2388C51.0708 30.8559 50.827 31.4292 50.3921 31.8767L54.6948 36.0584C56.1543 34.5567 57.0708 32.5068 57.0708 30.2388H51.0708ZM48.4334 27.7909C49.9876 27.7909 51.0708 28.9828 51.0708 30.2388H57.0708C57.0708 25.4773 53.1061 21.7909 48.4334 21.7909V27.7909ZM45.7959 30.2388C45.7959 28.9828 46.8792 27.7909 48.4334 27.7909V21.7909C43.7606 21.7909 39.7959 25.4773 39.7959 30.2388H45.7959ZM48.4334 32.6866C46.8792 32.6866 45.7959 31.4948 45.7959 30.2388H39.7959C39.7959 35.0003 43.7606 38.6866 48.4334 38.6866V32.6866ZM49.5202 32.4701C49.1943 32.6075 48.8285 32.6866 48.4334 32.6866V38.6866C49.6398 38.6866 50.7975 38.4431 51.8514 37.9987L49.5202 32.4701ZM67.5571 53.788C64.331 47.2159 57.6734 38.7834 52.9647 33.2834L48.4069 37.1855C53.1115 42.6807 59.3124 50.6084 62.1711 56.4319L67.5571 53.788ZM149.385 52.1099H64.8641V58.1099H149.385V52.1099ZM160.75 33.2207C154.144 40.2767 148.802 49.4827 146.691 53.79L152.079 56.4299C154.031 52.447 159.065 43.8003 165.13 37.3213L160.75 33.2207ZM165.104 32.6866C164.726 32.6866 164.374 32.6141 164.059 32.4874L161.821 38.0545C162.839 38.4635 163.949 38.6866 165.104 38.6866V32.6866ZM167.741 30.2388C167.741 31.4948 166.658 32.6866 165.104 32.6866V38.6866C169.777 38.6866 173.741 35.0003 173.741 30.2388H167.741ZM165.104 27.7909C166.658 27.7909 167.741 28.9828 167.741 30.2388H173.741C173.741 25.4773 169.777 21.7909 165.104 21.7909V27.7909ZM162.467 30.2388C162.467 28.9828 163.55 27.7909 165.104 27.7909V21.7909C160.431 21.7909 156.467 25.4773 156.467 30.2388H162.467ZM163.101 31.8302C162.694 31.3898 162.467 30.8356 162.467 30.2388H156.467C156.467 32.4284 157.321 34.4162 158.695 35.9025L163.101 31.8302ZM153.556 43.3071C154.922 42.731 156.576 41.5469 158.092 40.3359C159.689 39.061 161.41 37.5296 162.973 36.033L158.823 31.6997C157.36 33.1008 155.775 34.508 154.349 35.6471C152.842 36.8501 151.754 37.5553 151.225 37.7786L153.556 43.3071ZM138.918 29.7187C138.297 33.2443 138.449 36.1743 139.394 38.5267C140.374 40.9683 142.104 42.5204 144.051 43.372C145.916 44.1873 147.878 44.3231 149.471 44.2148C151.062 44.1067 152.534 43.7384 153.556 43.3071L151.225 37.7786C150.87 37.9281 150.057 38.1612 149.065 38.2286C148.075 38.2958 147.157 38.1814 146.455 37.8745C145.836 37.6037 145.311 37.1616 144.962 36.2906C144.576 35.3305 144.321 33.6296 144.827 30.7599L138.918 29.7187ZM140.226 24.0065C139.831 25.4685 139.465 26.869 139.218 27.9166C139.097 28.4294 138.991 28.9156 138.926 29.2995C138.898 29.4682 138.856 29.7411 138.846 30.025C138.843 30.1277 138.831 30.4815 138.93 30.9008C138.977 31.0985 139.108 31.5803 139.489 32.0712C139.95 32.6656 140.773 33.2393 141.872 33.2393V27.2393C142.961 27.2393 143.775 27.808 144.229 28.3926C144.602 28.8737 144.727 29.3409 144.769 29.5193C144.859 29.9 144.844 30.1963 144.843 30.2238C144.839 30.3574 144.824 30.409 144.843 30.2941C144.874 30.1105 144.943 29.7797 145.058 29.2935C145.282 28.3434 145.627 27.0188 146.018 25.5718L140.226 24.0065ZM143.29 21.7915C143.262 21.7915 143.235 21.7911 143.207 21.7904L143.037 27.788C143.121 27.7903 143.206 27.7915 143.29 27.7915V21.7915ZM145.928 19.3437C145.928 20.5997 144.844 21.7915 143.29 21.7915V27.7915C147.963 27.7915 151.928 24.1052 151.928 19.3437H145.928ZM143.29 16.8958C144.844 16.8958 145.928 18.0877 145.928 19.3437H151.928C151.928 14.5821 147.963 10.8958 143.29 10.8958V16.8958ZM140.653 19.3437C140.653 18.0877 141.736 16.8958 143.29 16.8958V10.8958C138.618 10.8958 134.653 14.5821 134.653 19.3437H140.653ZM141.391 21.0405C140.918 20.585 140.653 19.987 140.653 19.3437H134.653C134.653 21.7133 135.653 23.8425 137.226 25.3594L141.391 21.0405ZM124.181 38.3024C128.63 38.0957 132.22 36.0095 135.055 33.4071C137.862 30.8302 140.085 27.606 141.849 24.7946L136.767 21.6053C135.072 24.307 133.193 26.9716 130.997 28.9872C128.83 30.9774 126.516 32.1875 123.902 32.3089L124.181 38.3024ZM123.694 38.3104C123.839 38.3076 123.945 38.3057 124.042 38.3057V32.3057C123.878 32.3057 123.713 32.3089 123.579 32.3115L123.694 38.3104ZM123.636 38.3109H123.637V32.3109H123.636V38.3109ZM123.636 38.3109H123.636V32.3109H123.636V38.3109ZM123.636 38.3109H123.636V32.3109H123.636V38.3109ZM123.636 38.3109H123.636V32.3109H123.636V38.3109ZM105.255 15.6599C109.201 26.1788 112.559 31.8673 115.582 34.9122C117.146 36.4867 118.676 37.414 120.196 37.8926C121.69 38.363 122.97 38.3241 123.693 38.3104L123.579 32.3115C122.873 32.3249 122.47 32.318 121.998 32.1696C121.552 32.0292 120.835 31.6867 119.84 30.6848C117.747 28.5768 114.749 23.8858 110.873 13.5527L105.255 15.6599ZM104.954 13.9733L105.09 14.9994L111.038 14.2133L110.902 13.1872L104.954 13.9733Z" fill="white" mask="url(#path-5-outside-2)"/>
<path fill-rule="evenodd" clip-rule="evenodd" d="M70.3147 75.5039L93.1967 75.2664H93.1969H103.806V162.195L93.1967 149.777V108.664H70.7306L87.7166 127.494L87.5391 143.128L47.7803 97.7245L54.7139 90.9088L54.7495 90.9482L67.2932 78.3456L67.2983 78.3508L70.3147 75.5039ZM62.7289 98.0052H93.1967V85.9252H74.8079L74.7802 85.8973L62.7289 98.0052Z" fill="white"/>
<path fill-rule="evenodd" clip-rule="evenodd" d="M120.073 75.2668H109.464V162.196L120.073 149.777V117.156L131.99 120.739L125.985 127.449V144.241L150.124 116.566L151.215 115.336L128.144 108.723H156.774L166.313 98.3256L166.482 98.143L166.481 98.142L166.482 98.1405L166.48 98.1405L146.378 77.9443L146.375 77.947L144.146 75.5037L120.073 75.2668H120.073ZM150.787 98.1101L120.073 98.0505V85.9257H138.462L138.491 85.899L150.787 98.1101Z" fill="white"/>
</g>
<defs>
<filter id="filter0_d" x="34" y="0" width="146" height="195" filterUnits="userSpaceOnUse" color-interpolation-filters="sRGB">
<feFlood flood-opacity="0" result="BackgroundImageFix"/>
<feColorMatrix in="SourceAlpha" type="matrix" values="0 0 0 0 0 0 0 0 0 0 0 0 0 0 0 0 0 0 127 0" result="hardAlpha"/>
<feOffset dy="14"/>
<feGaussianBlur stdDeviation="2"/>
<feComposite in2="hardAlpha" operator="out"/>
<feColorMatrix type="matrix" values="0 0 0 0 0 0 0 0 0 0 0 0 0 0 0 0 0 0 0.15 0"/>
<feBlend mode="normal" in2="BackgroundImageFix" result="effect1_dropShadow"/>
<feBlend mode="normal" in="SourceGraphic" in2="effect1_dropShadow" result="shape"/>
</filter>
</defs>
</svg>
