<svg width="155" height="196" viewBox="0 0 155 196" fill="none" xmlns="http://www.w3.org/2000/svg">
<g filter="url(#filter0_d)">
<rect x="35" y="55" width="86" height="9" rx="4.5" fill="#19345F" stroke="white" stroke-width="4"/>
<path d="M34.1825 63L4 93.1456L77.7795 178L151 93.1456L121.376 63H34.1825Z" fill="white"/>
<mask id="path-3-inside-1" fill="white">
<path fill-rule="evenodd" clip-rule="evenodd" d="M118.833 63.9008V63.8252L36.8382 63.8252V63.8927L10.3984 90.1502L10.3967 90.1482L7 93.4379L74.4506 171.905L74.4393 171.918L77.5929 175.574L148.999 93.8193L145.76 90.513L145.699 90.5823L118.833 63.9008ZM142.616 94.1015L116.793 68.456L38.8702 68.456L13.4487 93.7021L77.5592 168.357L142.616 94.1015Z"/>
</mask>
<path fill-rule="evenodd" clip-rule="evenodd" d="M118.833 63.9008V63.8252L36.8382 63.8252V63.8927L10.3984 90.1502L10.3967 90.1482L7 93.4379L74.4506 171.905L74.4393 171.918L77.5929 175.574L148.999 93.8193L145.76 90.513L145.699 90.5823L118.833 63.9008ZM142.616 94.1015L116.793 68.456L38.8702 68.456L13.4487 93.7021L77.5592 168.357L142.616 94.1015Z" fill="#19345F"/>
<path d="M118.833 63.8252H119.833V62.8252L118.833 62.8252V63.8252ZM118.833 63.9008H117.833V64.3171L118.128 64.6104L118.833 63.9008ZM36.8382 63.8252V62.8252H35.8382V63.8252H36.8382ZM36.8382 63.8927L37.5428 64.6023L37.8382 64.309V63.8927H36.8382ZM10.3984 90.1502L9.63973 90.8016L10.3402 91.6173L11.103 90.8597L10.3984 90.1502ZM10.3967 90.1482L11.1554 89.4967L10.4637 88.6913L9.70103 89.4299L10.3967 90.1482ZM7 93.4379L6.30431 92.7195L5.62738 93.3751L6.24167 94.0898L7 93.4379ZM74.4506 171.905L75.2027 172.564L75.7747 171.911L75.2089 171.253L74.4506 171.905ZM74.4393 171.918L73.6872 171.259L73.1142 171.913L73.6821 172.571L74.4393 171.918ZM77.5929 175.574L76.8357 176.227L77.5882 177.099L78.3461 176.232L77.5929 175.574ZM148.999 93.8193L149.752 94.4771L150.361 93.7803L149.714 93.1194L148.999 93.8193ZM145.76 90.513L146.474 89.8132L145.719 89.0423L145.008 89.854L145.76 90.513ZM145.699 90.5823L144.995 91.2918L145.75 92.0419L146.452 91.2413L145.699 90.5823ZM142.616 94.1015L143.368 94.7605L143.987 94.0539L143.321 93.392L142.616 94.1015ZM116.793 68.456L117.497 67.7465L117.205 67.456H116.793V68.456ZM38.8702 68.456V67.456H38.458L38.1655 67.7465L38.8702 68.456ZM13.4487 93.7021L12.7441 92.9926L12.0841 93.648L12.6901 94.3536L13.4487 93.7021ZM77.5592 168.357L76.8006 169.008L77.5517 169.883L78.3114 169.016L77.5592 168.357ZM117.833 63.8252V63.9008H119.833V63.8252H117.833ZM36.8382 64.8252L118.833 64.8252V62.8252L36.8382 62.8252V64.8252ZM37.8382 63.8927V63.8252H35.8382V63.8927H37.8382ZM11.103 90.8597L37.5428 64.6023L36.1335 63.1832L9.69374 89.4406L11.103 90.8597ZM9.63807 90.7997L9.63973 90.8016L11.157 89.4987L11.1554 89.4967L9.63807 90.7997ZM7.69569 94.1562L11.0924 90.8666L9.70103 89.4299L6.30431 92.7195L7.69569 94.1562ZM75.2089 171.253L7.75833 92.786L6.24167 94.0898L73.6922 172.557L75.2089 171.253ZM73.6985 171.246L73.6872 171.259L75.1914 172.577L75.2027 172.564L73.6985 171.246ZM73.6821 172.571L76.8357 176.227L78.3501 174.921L75.1965 171.265L73.6821 172.571ZM78.3461 176.232L149.752 94.4771L148.246 93.1614L76.8398 174.916L78.3461 176.232ZM149.714 93.1194L146.474 89.8132L145.046 91.2128L148.285 94.5191L149.714 93.1194ZM145.008 89.854L144.947 89.9232L146.452 91.2413L146.512 91.172L145.008 89.854ZM118.128 64.6104L144.995 91.2918L146.404 89.8727L119.537 63.1913L118.128 64.6104ZM143.321 93.392L117.497 67.7465L116.088 69.1656L141.911 94.8111L143.321 93.392ZM116.793 67.456L38.8702 67.456V69.456L116.793 69.456V67.456ZM38.1655 67.7465L12.7441 92.9926L14.1534 94.4117L39.5748 69.1656L38.1655 67.7465ZM12.6901 94.3536L76.8006 169.008L78.3179 167.705L14.2074 93.0506L12.6901 94.3536ZM141.864 93.4425L76.8071 167.698L78.3114 169.016L143.368 94.7605L141.864 93.4425Z" fill="white" mask="url(#path-3-inside-1)"/>
<mask id="path-5-outside-2" maskUnits="userSpaceOnUse" x="13" y="0.046875" width="130" height="57" fill="black">
<rect fill="white" x="13" y="0.046875" width="130" height="57"/>
<path fill-rule="evenodd" clip-rule="evenodd" d="M78.8883 13.2625C80.9943 12.5362 82.5016 10.5917 82.5016 8.30703C82.5016 5.40193 80.0645 3.04688 77.0583 3.04688C74.0521 3.04688 71.6151 5.40193 71.6151 8.30703C71.6151 10.7993 73.4087 12.8867 75.8166 13.4297C74.4486 21.4423 71.3525 32.4646 64.8737 33.8074C57.9407 35.2443 51.6482 33.0412 46.0881 22.9775C47.3652 22.0149 48.1865 20.5138 48.1865 18.8274C48.1865 15.9223 45.7495 13.5672 42.7432 13.5672C39.737 13.5672 37.3 15.9223 37.3 18.8274C37.3 21.7325 39.737 24.0875 42.7432 24.0875C42.9239 24.0875 43.1026 24.079 43.2787 24.0624C44.0139 29.5934 43.5362 36.3493 38.7587 39.2962C37.0143 40.2243 32.1044 40.0365 25.4117 32.9475C26.3263 32.0065 26.8865 30.7401 26.8865 29.3473C26.8865 26.4422 24.4495 24.0871 21.4432 24.0871C18.437 24.0871 16 26.4422 16 29.3473C16 32.2524 18.437 34.6074 21.4432 34.6074C22.2164 34.6074 22.952 34.4516 23.6181 34.1708C28.1626 39.479 34.3703 47.3772 37.3078 53.3614H118.917C120.878 49.3592 125.888 40.7404 132.005 34.2061C132.648 34.4647 133.354 34.6074 134.094 34.6074C137.1 34.6074 139.537 32.2524 139.537 29.3473C139.537 26.4422 137.1 24.0871 134.094 24.0871C131.088 24.0871 128.651 26.4422 128.651 29.3473C128.651 30.6925 129.173 31.9198 130.033 32.8499C127.111 35.6478 123.649 38.5245 121.819 39.2962C119.159 40.418 109.487 41.6976 111.663 29.3477C111.498 29.3477 112.11 26.894 112.869 24.0852C112.923 24.0868 112.978 24.0875 113.032 24.0875C116.038 24.0875 118.475 21.7325 118.475 18.8274C118.475 15.9223 116.038 13.5672 113.032 13.5672C110.026 13.5672 107.589 15.9223 107.589 18.8274C107.589 20.2819 108.2 21.5986 109.187 22.5508C105.847 27.874 101.266 33.9226 94.4466 34.2395C94.3205 34.2395 94.1899 34.242 94.0545 34.2446C91.2957 34.2971 86.5713 34.3869 79.0193 14.2533L78.8883 13.2625Z"/>
</mask>
<path fill-rule="evenodd" clip-rule="evenodd" d="M78.8883 13.2625C80.9943 12.5362 82.5016 10.5917 82.5016 8.30703C82.5016 5.40193 80.0645 3.04688 77.0583 3.04688C74.0521 3.04688 71.6151 5.40193 71.6151 8.30703C71.6151 10.7993 73.4087 12.8867 75.8166 13.4297C74.4486 21.4423 71.3525 32.4646 64.8737 33.8074C57.9407 35.2443 51.6482 33.0412 46.0881 22.9775C47.3652 22.0149 48.1865 20.5138 48.1865 18.8274C48.1865 15.9223 45.7495 13.5672 42.7432 13.5672C39.737 13.5672 37.3 15.9223 37.3 18.8274C37.3 21.7325 39.737 24.0875 42.7432 24.0875C42.9239 24.0875 43.1026 24.079 43.2787 24.0624C44.0139 29.5934 43.5362 36.3493 38.7587 39.2962C37.0143 40.2243 32.1044 40.0365 25.4117 32.9475C26.3263 32.0065 26.8865 30.7401 26.8865 29.3473C26.8865 26.4422 24.4495 24.0871 21.4432 24.0871C18.437 24.0871 16 26.4422 16 29.3473C16 32.2524 18.437 34.6074 21.4432 34.6074C22.2164 34.6074 22.952 34.4516 23.6181 34.1708C28.1626 39.479 34.3703 47.3772 37.3078 53.3614H118.917C120.878 49.3592 125.888 40.7404 132.005 34.2061C132.648 34.4647 133.354 34.6074 134.094 34.6074C137.1 34.6074 139.537 32.2524 139.537 29.3473C139.537 26.4422 137.1 24.0871 134.094 24.0871C131.088 24.0871 128.651 26.4422 128.651 29.3473C128.651 30.6925 129.173 31.9198 130.033 32.8499C127.111 35.6478 123.649 38.5245 121.819 39.2962C119.159 40.418 109.487 41.6976 111.663 29.3477C111.498 29.3477 112.11 26.894 112.869 24.0852C112.923 24.0868 112.978 24.0875 113.032 24.0875C116.038 24.0875 118.475 21.7325 118.475 18.8274C118.475 15.9223 116.038 13.5672 113.032 13.5672C110.026 13.5672 107.589 15.9223 107.589 18.8274C107.589 20.2819 108.2 21.5986 109.187 22.5508C105.847 27.874 101.266 33.9226 94.4466 34.2395C94.3205 34.2395 94.1899 34.242 94.0545 34.2446C91.2957 34.2971 86.5713 34.3869 79.0193 14.2533L78.8883 13.2625Z" fill="#19345F"/>
<path d="M78.8883 13.2625L77.9102 10.4265L75.593 11.2256L75.9142 13.6556L78.8883 13.2625ZM75.8166 13.4297L78.7738 13.9346L79.2527 11.1292L76.4765 10.5032L75.8166 13.4297ZM64.8737 33.8074L65.4825 36.745L64.8737 33.8074ZM46.0881 22.9775L44.2824 20.5818L42.203 22.1491L43.4622 24.4283L46.0881 22.9775ZM43.2787 24.0624L46.2526 23.6671L45.872 20.8044L42.9969 21.0757L43.2787 24.0624ZM38.7587 39.2962L40.1677 41.9448L40.2522 41.8998L40.3337 41.8496L38.7587 39.2962ZM25.4117 32.9475L23.2604 30.8567L21.2576 32.9175L23.2303 35.007L25.4117 32.9475ZM23.6181 34.1708L25.897 32.2197L24.4718 30.555L22.4525 31.4064L23.6181 34.1708ZM37.3078 53.3614L34.6148 54.6834L35.4385 56.3614H37.3078V53.3614ZM118.917 53.3614V56.3614H120.788L121.611 54.6814L118.917 53.3614ZM132.005 34.2061L133.124 31.4226L131.218 30.6566L129.815 32.1558L132.005 34.2061ZM130.033 32.8499L132.108 35.0165L134.236 32.978L132.236 30.8137L130.033 32.8499ZM121.819 39.2962L122.984 42.0605L121.819 39.2962ZM111.663 29.3477L114.617 29.8683L115.238 26.3477H111.663V29.3477ZM112.869 24.0852L112.954 21.0864L110.59 21.0195L109.973 23.3026L112.869 24.0852ZM109.187 22.5508L111.728 24.1454L113.023 22.0822L111.27 20.3913L109.187 22.5508ZM94.4466 34.2395V37.2395H94.5162L94.5858 37.2363L94.4466 34.2395ZM94.0545 34.2446L93.9974 31.2451L94.0545 34.2446ZM79.0193 14.2533L76.0451 14.6464L76.09 14.9861L76.2104 15.3069L79.0193 14.2533ZM79.5016 8.30703C79.5016 9.21934 78.8961 10.0864 77.9102 10.4265L79.8665 16.0986C83.0926 14.9859 85.5016 11.9641 85.5016 8.30703H79.5016ZM77.0583 6.04688C78.5053 6.04688 79.5016 7.1547 79.5016 8.30703H85.5016C85.5016 3.64915 81.6238 0.046875 77.0583 0.046875V6.04688ZM74.6151 8.30703C74.6151 7.1547 75.6114 6.04688 77.0583 6.04688V0.046875C72.4928 0.046875 68.6151 3.64915 68.6151 8.30703H74.6151ZM76.4765 10.5032C75.3401 10.2469 74.6151 9.29986 74.6151 8.30703H68.6151C68.6151 12.2987 71.4773 15.5266 75.1567 16.3562L76.4765 10.5032ZM65.4825 36.745C70.2466 35.7576 73.1817 31.412 75.0004 27.3442C76.9055 23.0833 78.0729 18.0396 78.7738 13.9346L72.8594 12.9248C72.1922 16.8323 71.1277 21.3061 69.523 24.8952C67.8319 28.6775 65.9796 30.5144 64.2648 30.8698L65.4825 36.745ZM43.4622 24.4283C46.4154 29.7735 49.7492 33.3749 53.5826 35.3671C57.4717 37.3883 61.5149 37.5672 65.4825 36.745L64.2648 30.8698C61.2994 31.4844 58.7299 31.2803 56.3495 30.0432C53.9135 28.7772 51.3209 26.2452 48.714 21.5267L43.4622 24.4283ZM45.1865 18.8274C45.1865 19.5086 44.8596 20.1467 44.2824 20.5818L47.8938 25.3732C49.8708 23.8831 51.1865 21.5191 51.1865 18.8274H45.1865ZM42.7432 16.5672C44.1902 16.5672 45.1865 17.6751 45.1865 18.8274H51.1865C51.1865 14.1695 47.3087 10.5672 42.7432 10.5672V16.5672ZM40.3 18.8274C40.3 17.6751 41.2963 16.5672 42.7432 16.5672V10.5672C38.1777 10.5672 34.3 14.1695 34.3 18.8274H40.3ZM42.7432 21.0875C41.2963 21.0875 40.3 19.9797 40.3 18.8274H34.3C34.3 23.4853 38.1777 27.0875 42.7432 27.0875V21.0875ZM42.9969 21.0757C42.9143 21.0835 42.8297 21.0875 42.7432 21.0875V27.0875C43.0182 27.0875 43.2908 27.0746 43.5605 27.0491L42.9969 21.0757ZM40.3337 41.8496C43.6276 39.8177 45.275 36.5532 46.0114 33.3132C46.7433 30.0927 46.6468 26.633 46.2526 23.6671L40.3049 24.4577C40.6458 27.0228 40.6781 29.7065 40.1606 31.9835C39.6475 34.2409 38.6673 35.8278 37.1837 36.7429L40.3337 41.8496ZM23.2303 35.007C26.8056 38.794 30.088 40.9353 32.9296 41.9527C35.6968 42.9434 38.3011 42.9378 40.1677 41.9448L37.3496 36.6477C37.4719 36.5827 36.7491 36.9472 34.952 36.3038C33.2294 35.6871 30.7105 34.19 27.5932 30.8881L23.2303 35.007ZM23.8865 29.3473C23.8865 29.9146 23.6627 30.4428 23.2604 30.8567L27.5631 35.0384C28.9899 33.5702 29.8865 31.5656 29.8865 29.3473H23.8865ZM21.4432 27.0871C22.8902 27.0871 23.8865 28.1949 23.8865 29.3473H29.8865C29.8865 24.6894 26.0087 21.0871 21.4432 21.0871V27.0871ZM19 29.3473C19 28.1949 19.9963 27.0871 21.4432 27.0871V21.0871C16.8777 21.0871 13 24.6894 13 29.3473H19ZM21.4432 31.6074C19.9963 31.6074 19 30.4996 19 29.3473H13C13 34.0051 16.8777 37.6074 21.4432 37.6074V31.6074ZM22.4525 31.4064C22.1504 31.5338 21.8108 31.6074 21.4432 31.6074V37.6074C22.6221 37.6074 23.7536 37.3694 24.7837 36.9351L22.4525 31.4064ZM40.0009 52.0395C36.8796 45.681 30.4435 37.5304 25.897 32.2197L21.3392 36.1218C25.8816 41.4276 31.861 49.0735 34.6148 54.6834L40.0009 52.0395ZM118.917 50.3614H37.3078V56.3614H118.917V50.3614ZM129.815 32.1558C123.427 38.9786 118.264 47.877 116.223 52.0415L121.611 54.6814C123.493 50.8413 128.348 42.5022 134.195 36.2564L129.815 32.1558ZM134.094 31.6074C133.742 31.6074 133.416 31.5399 133.124 31.4226L130.886 36.9896C131.88 37.3894 132.966 37.6074 134.094 37.6074V31.6074ZM136.537 29.3473C136.537 30.4996 135.541 31.6074 134.094 31.6074V37.6074C138.659 37.6074 142.537 34.0051 142.537 29.3473H136.537ZM134.094 27.0871C135.541 27.0871 136.537 28.1949 136.537 29.3473H142.537C142.537 24.6894 138.659 21.0871 134.094 21.0871V27.0871ZM131.651 29.3473C131.651 28.1949 132.647 27.0871 134.094 27.0871V21.0871C129.528 21.0871 125.651 24.6894 125.651 29.3473H131.651ZM132.236 30.8137C131.86 30.4065 131.651 29.8961 131.651 29.3473H125.651C125.651 31.4889 126.487 33.433 127.83 34.8861L132.236 30.8137ZM122.984 42.0605C124.318 41.4982 125.924 40.3467 127.389 39.1773C128.933 37.944 130.597 36.4633 132.108 35.0165L127.958 30.6833C126.547 32.0345 125.019 33.391 123.645 34.4885C122.19 35.6498 121.15 36.3225 120.653 36.532L122.984 42.0605ZM108.709 28.8271C108.107 32.2425 108.252 35.0927 109.174 37.3881C110.131 39.7726 111.822 41.2904 113.725 42.1226C115.546 42.9186 117.458 43.0501 119.007 42.9448C120.553 42.8397 121.985 42.4818 122.984 42.0605L120.653 36.532C120.322 36.6715 119.548 36.8942 118.6 36.9586C117.656 37.0228 116.787 36.9127 116.129 36.6251C115.554 36.3737 115.068 35.9659 114.742 35.152C114.379 34.2489 114.131 32.6278 114.617 29.8683L108.709 28.8271ZM109.973 23.3026C109.592 24.7145 109.239 26.068 109 27.0813C108.883 27.5768 108.779 28.049 108.716 28.4231C108.689 28.587 108.647 28.8561 108.638 29.1374C108.634 29.2387 108.622 29.5915 108.722 30.0102C108.768 30.2076 108.899 30.6892 109.28 31.1799C109.741 31.7741 110.564 32.3477 111.663 32.3477V26.3477C112.752 26.3477 113.566 26.9165 114.02 27.5013C114.393 27.9825 114.518 28.4499 114.56 28.6287C114.651 29.01 114.636 29.3074 114.635 29.3362C114.63 29.4723 114.615 29.5278 114.633 29.4178C114.663 29.244 114.729 28.9272 114.839 28.4582C115.055 27.5424 115.388 26.2648 115.766 24.8679L109.973 23.3026ZM113.032 21.0875C113.006 21.0875 112.98 21.0872 112.954 21.0864L112.785 27.084C112.867 27.0864 112.949 27.0875 113.032 27.0875V21.0875ZM115.475 18.8274C115.475 19.9797 114.479 21.0875 113.032 21.0875V27.0875C117.597 27.0875 121.475 23.4853 121.475 18.8274H115.475ZM113.032 16.5672C114.479 16.5672 115.475 17.6751 115.475 18.8274H121.475C121.475 14.1695 117.597 10.5672 113.032 10.5672V16.5672ZM110.589 18.8274C110.589 17.6751 111.585 16.5672 113.032 16.5672V10.5672C108.466 10.5672 104.589 14.1695 104.589 18.8274H110.589ZM111.27 20.3913C110.833 19.9699 110.589 19.4188 110.589 18.8274H104.589C104.589 21.1451 105.567 23.2273 107.105 24.7103L111.27 20.3913ZM94.5858 37.2363C98.9137 37.0352 102.402 35.0058 105.15 32.4825C107.871 29.9847 110.024 26.8619 111.728 24.1454L106.646 20.9562C105.01 23.5629 103.202 26.126 101.093 28.0626C99.0112 29.9736 96.7994 31.127 94.3073 31.2428L94.5858 37.2363ZM94.1115 37.244C94.2527 37.2414 94.3541 37.2395 94.4466 37.2395V31.2395C94.2869 31.2395 94.127 31.2427 93.9974 31.2451L94.1115 37.244ZM76.2104 15.3069C80.0212 25.4666 83.2703 30.9763 86.2054 33.9324C87.7247 35.4626 89.2165 36.368 90.7023 36.8359C92.1624 37.2956 93.4133 37.2573 94.1115 37.244L93.9974 31.2451C93.3162 31.2581 92.942 31.2507 92.5044 31.1129C92.0924 30.9832 91.4139 30.6626 90.4632 29.705C88.4584 27.6858 85.5693 23.1736 81.8282 13.1997L76.2104 15.3069ZM75.9142 13.6556L76.0451 14.6464L81.9934 13.8603L81.8625 12.8695L75.9142 13.6556Z" fill="white" mask="url(#path-5-outside-2)"/>
<path fill-rule="evenodd" clip-rule="evenodd" d="M41.3142 72.5039L64.1962 72.2664H64.1964H74.8052V159.195L64.1962 146.777V105.664H41.7301L58.7161 124.494L58.5386 140.128L18.7798 94.7245L25.7134 87.9088L25.749 87.9482L38.2927 75.3456L38.2978 75.3508L41.3142 72.5039ZM33.7284 95.0052H64.1962V82.9252H45.8074L45.7797 82.8973L33.7284 95.0052Z" fill="#C53242"/>
<path fill-rule="evenodd" clip-rule="evenodd" d="M91.0727 72.2668H80.4639V159.196L91.0729 146.777V114.156L102.989 117.739L96.9845 124.449V141.241L121.124 113.566L122.214 112.336L99.1436 105.723H127.774L137.312 95.3256L137.481 95.143L137.48 95.142L137.482 95.1405L137.479 95.1405L117.377 74.9443L117.374 74.947L115.145 72.5037L91.0729 72.2668H91.0727ZM121.786 95.1101L91.0729 95.0505V82.9257H109.462L109.491 82.899L121.786 95.1101Z" fill="#C53242"/>
</g>
<defs>
<filter id="filter0_d" x="0" y="0.046875" width="155" height="195.953" filterUnits="userSpaceOnUse" color-interpolation-filters="sRGB">
<feFlood flood-opacity="0" result="BackgroundImageFix"/>
<feColorMatrix in="SourceAlpha" type="matrix" values="0 0 0 0 0 0 0 0 0 0 0 0 0 0 0 0 0 0 127 0" result="hardAlpha"/>
<feOffset dy="14"/>
<feGaussianBlur stdDeviation="2"/>
<feComposite in2="hardAlpha" operator="out"/>
<feColorMatrix type="matrix" values="0 0 0 0 0 0 0 0 0 0 0 0 0 0 0 0 0 0 0.15 0"/>
<feBlend mode="normal" in2="BackgroundImageFix" result="effect1_dropShadow"/>
<feBlend mode="normal" in="SourceGraphic" in2="effect1_dropShadow" result="shape"/>
</filter>
</defs>
</svg>
