<svg width="466" height="143" viewBox="0 0 466 143" fill="none" xmlns="http://www.w3.org/2000/svg">
<g filter="url(#filter0_d)">
<path d="M50.26 6.36C50.26 6.42 49.97 6.78 49.39 7.44C48.81 8.1 48.42 8.78 48.22 9.48C48.12 9.68 48.07 9.86 48.07 10.02C48.07 10.16 48.11 10.33 48.19 10.53C48.29 10.71 48.33 10.88 48.31 11.04C48.17 11.24 47.94 11.34 47.62 11.34C47.32 11.34 47.09 11.23 46.93 11.01C46.79 10.79 46.72 10.54 46.72 10.26C46.72 9.98 47.15 9.29 48.01 8.19C49.21 6.79 49.92 6.09 50.14 6.09C50.22 6.09 50.26 6.18 50.26 6.36ZM53.38 6.36C53.38 6.4 53.16 6.68 52.72 7.2C52.02 7.96 51.57 8.72 51.37 9.48C51.27 9.68 51.22 9.86 51.22 10.02C51.22 10.16 51.26 10.33 51.34 10.53C51.44 10.71 51.48 10.88 51.46 11.04C51.32 11.24 51.09 11.34 50.77 11.34C50.47 11.34 50.24 11.23 50.08 11.01C49.94 10.79 49.87 10.58 49.87 10.38C49.87 9.96 50.33 9.2 51.25 8.1C52.37 6.76 53.04 6.09 53.26 6.09C53.34 6.09 53.38 6.18 53.38 6.36ZM56.8605 11.76C56.8605 12.08 56.9405 12.36 57.1005 12.6C57.2805 12.84 57.4405 13.01 57.5805 13.11C57.8605 13.29 58.2205 13.49 58.6605 13.71C58.9005 13.89 58.9505 14 58.8105 14.04C58.7505 14.04 58.6805 14.03 58.6005 14.01C58.1205 13.91 57.6105 13.62 57.0705 13.14C56.5305 12.66 56.2505 12.11 56.2305 11.49C56.1705 11.27 56.1405 11.08 56.1405 10.92C56.1405 10.06 56.5005 9.31 57.2205 8.67C58.5605 7.53 60.6905 6.96 63.6105 6.96C63.6105 6.88 63.6405 6.78 63.7005 6.66C63.7405 6.42 64.0505 6.3 64.6305 6.3C65.1305 6.3 65.3705 6.42 65.3505 6.66C65.2705 6.82 65.2205 6.95 65.2005 7.05C66.4805 7.13 67.5505 7.39 68.4105 7.83C68.6905 7.97 68.8905 8.14 69.0105 8.34C69.1505 8.54 69.2205 8.68 69.2205 8.76C69.2205 8.94 68.8505 8.91 68.1105 8.67C67.3905 8.41 66.2805 8.28 64.7805 8.28C64.6805 8.7 64.3305 9.76 63.7305 11.46C63.1505 13.16 62.7805 14.22 62.6205 14.64C62.4605 15.04 62.2405 15.61 61.9605 16.35C61.6805 17.07 61.4305 17.66 61.2105 18.12C60.9905 18.58 60.7405 19.1 60.4605 19.68C59.9805 20.66 59.4105 21.58 58.7505 22.44C58.2505 23.02 57.8705 23.41 57.6105 23.61C57.9505 23.61 58.6105 23.61 59.5905 23.61C60.5705 23.61 61.4305 23.59 62.1705 23.55C62.9105 23.49 63.3105 23.49 63.3705 23.55C63.4505 23.61 63.4605 23.68 63.4005 23.76C63.2805 23.96 63.1205 24.11 62.9205 24.21C62.7205 24.33 61.2505 24.43 58.5105 24.51C55.7705 24.59 54.0605 24.63 53.3805 24.63C52.7005 24.63 52.2105 24.63 51.9105 24.63C51.4505 24.61 51.2205 24.43 51.2205 24.09C51.2205 23.91 51.2805 23.66 51.4005 23.34C51.5405 23.02 51.8105 22.82 52.2105 22.74C52.6305 22.64 53.0005 22.72 53.3205 22.98C53.8605 23.42 54.3905 23.64 54.9105 23.64C55.4305 23.64 55.9605 23.54 56.5005 23.34C57.0605 23.14 57.6205 22.68 58.1805 21.96C59.8005 19.8 61.5005 15.25 63.2805 8.31C61.4405 8.47 59.9105 8.85 58.6905 9.45C57.4705 10.03 56.8605 10.8 56.8605 11.76ZM63.6911 33.72C63.6311 33.82 63.5811 33.89 63.5411 33.93C63.4811 33.97 63.2711 34.09 62.9111 34.29C62.5511 34.49 62.2311 34.59 61.9511 34.59C61.6511 34.59 61.5011 34.52 61.5011 34.38C61.5011 34.32 61.5211 34.24 61.5611 34.14C61.9211 33.46 63.7711 28.85 67.1111 20.31C66.4911 20.39 66.0311 20.43 65.7311 20.43C65.4311 20.43 65.1911 20.37 65.0111 20.25C64.8511 20.11 64.7711 19.94 64.7711 19.74C64.7711 19.52 64.9911 19.33 65.4311 19.17C65.8911 18.99 66.2411 18.9 66.4811 18.9C66.7211 18.9 66.9211 18.98 67.0811 19.14C67.2411 19.3 67.3511 19.38 67.4111 19.38H67.5011L68.3711 17.16C68.7311 16.16 69.2811 14.86 70.0211 13.26C70.7611 11.64 71.4311 10.35 72.0311 9.39C73.3711 7.37 74.7111 6.36 76.0511 6.36L76.7711 6.45L77.3711 6.66C77.9511 7 78.2411 7.47 78.2411 8.07C78.2411 8.65 78.0811 9.28 77.7611 9.96C77.2211 11.12 76.1211 12.63 74.4611 14.49C72.8011 16.35 71.2011 17.9 69.6611 19.14C71.3011 19 72.3511 18.93 72.8111 18.93C73.2911 18.93 73.5411 18.99 73.5611 19.11C73.5611 19.19 73.3711 19.29 72.9911 19.41C72.6111 19.51 71.0711 19.76 68.3711 20.16C65.9911 26.2 64.7811 29.66 64.7411 30.54C64.7211 30.98 64.6711 31.29 64.5911 31.47C64.5311 31.67 64.4511 31.89 64.3511 32.13C64.2511 32.39 64.1711 32.58 64.1111 32.7C64.0711 32.84 64.0211 32.99 63.9611 33.15C63.9011 33.31 63.8511 33.42 63.8111 33.48C63.7711 33.56 63.7311 33.64 63.6911 33.72ZM76.9211 9.54C77.2611 8.96 77.4311 8.41 77.4311 7.89C77.4311 7.37 77.2411 7.11 76.8611 7.11C76.1011 7.11 75.0211 8.09 73.6211 10.05C72.8011 11.21 72.0711 12.36 71.4311 13.5C70.1511 15.9 69.3311 17.65 68.9711 18.75L68.7311 19.23C70.1311 18.19 71.6211 16.71 73.2011 14.79C74.7811 12.87 76.0211 11.12 76.9211 9.54ZM79.4376 35.43C79.2776 35.43 79.0776 35.4 78.8376 35.34C77.8176 35.08 77.3076 34.54 77.3076 33.72C77.3076 32.92 77.8376 31.91 78.8976 30.69C79.9376 29.47 82.1476 27.74 85.5276 25.5C87.4076 21.66 88.5976 18.97 89.0976 17.43C88.8576 17.71 88.3876 18.32 87.6876 19.26C86.9876 20.18 86.3676 20.97 85.8276 21.63C85.2876 22.27 84.6376 22.88 83.8776 23.46C83.1176 24.04 82.4176 24.33 81.7776 24.33C81.1376 24.33 80.6376 24.19 80.2776 23.91C79.9376 23.61 79.7476 23.3 79.7076 22.98C79.6676 22.66 79.6476 22.39 79.6476 22.17C79.6476 21.43 79.8476 20.69 80.2476 19.95C80.8476 18.73 81.6576 17.68 82.6776 16.8C83.0576 16.44 83.3876 16.26 83.6676 16.26C83.9676 16.26 84.2376 16.35 84.4776 16.53C84.7376 16.81 84.8176 17.05 84.7176 17.25C83.9576 17.69 83.0876 18.54 82.1076 19.8C81.5876 20.48 81.2276 21.34 81.0276 22.38C81.0076 22.52 80.9976 22.7 80.9976 22.92C80.9976 23.12 81.0776 23.29 81.2376 23.43C81.4176 23.55 81.5976 23.61 81.7776 23.61C82.3976 23.61 83.0476 23.28 83.7276 22.62C84.4076 21.96 85.0576 21.27 85.6776 20.55C86.2976 19.81 86.9976 18.93 87.7776 17.91C88.5776 16.89 89.0976 16.22 89.3376 15.9C89.5976 15.58 89.8576 15.42 90.1176 15.42C90.4376 15.42 90.7676 15.51 91.1076 15.69C91.4476 15.87 91.5876 16.01 91.5276 16.11C91.4876 16.21 90.9776 17.35 89.9976 19.53C89.0376 21.69 88.3376 23.24 87.8976 24.18C88.3776 23.92 89.1876 23.31 90.3276 22.35C91.4876 21.37 92.4676 20.38 93.2676 19.38C93.4676 19.14 93.5976 19.12 93.6576 19.32C93.6776 19.36 93.6876 19.43 93.6876 19.53C93.6876 19.61 93.6276 19.73 93.5076 19.89C92.8876 20.71 91.8976 21.74 90.5376 22.98C89.1776 24.22 88.0976 25.06 87.2976 25.5C85.5976 29 84.4576 31.2 83.8776 32.1C82.3776 34.32 80.8976 35.43 79.4376 35.43ZM84.9576 26.64C82.5576 28.44 80.8376 29.86 79.7976 30.9C78.7776 31.94 78.2676 32.83 78.2676 33.57C78.2676 34.33 78.5276 34.71 79.0476 34.71C79.4476 34.71 79.9076 34.5 80.4276 34.08C80.9476 33.68 81.4476 33.14 81.9276 32.46C82.4076 31.78 82.7676 31.19 83.0076 30.69C83.2676 30.21 83.6176 29.49 84.0576 28.53C84.4976 27.59 84.7976 26.96 84.9576 26.64ZM98.908 20.7C99.268 19.96 99.448 19.39 99.448 18.99C99.448 18.59 99.398 18.28 99.298 18.06C99.218 17.82 99.258 17.62 99.418 17.46C99.598 17.3 99.818 17.24 100.078 17.28C100.478 17.38 100.678 17.83 100.678 18.63C100.678 19.43 100.208 20.48 99.268 21.78C99.288 22.32 99.568 22.59 100.108 22.59C100.648 22.59 101.468 22.01 102.568 20.85C103.088 20.25 103.408 19.86 103.528 19.68C103.668 19.5 103.788 19.44 103.888 19.5C103.988 19.54 104.038 19.58 104.038 19.62C104.038 19.82 103.678 20.34 102.958 21.18C101.818 22.58 100.808 23.28 99.928 23.28C99.348 23.28 98.938 23.03 98.698 22.53C98.298 22.95 97.908 23.34 97.528 23.7C96.748 24.36 95.878 24.69 94.918 24.69C94.378 24.69 93.928 24.56 93.568 24.3C92.868 23.88 92.518 23.13 92.518 22.05C92.518 20.87 92.918 19.67 93.718 18.45C94.178 17.73 94.718 17.1 95.338 16.56C96.318 15.7 97.248 15.27 98.128 15.27C98.348 15.27 98.558 15.3 98.758 15.36C99.358 15.56 99.658 15.94 99.658 16.5C99.658 16.96 99.538 17.19 99.298 17.19C99.198 17.15 99.148 17 99.148 16.74C99.148 16.38 98.948 16.2 98.548 16.2C97.848 16.2 96.948 16.84 95.848 18.12C94.748 19.4 94.088 20.69 93.868 21.99C93.828 22.21 93.808 22.46 93.808 22.74C93.808 23 93.898 23.31 94.078 23.67C94.258 24.01 94.588 24.18 95.068 24.18C95.568 24.18 96.108 23.96 96.688 23.52C97.268 23.08 97.788 22.52 98.248 21.84L98.158 21.66C98.078 21.34 98.118 21.08 98.278 20.88C98.438 20.68 98.648 20.62 98.908 20.7ZM117.316 19.8C117.016 20.34 116.476 21.03 115.696 21.87C114.916 22.71 114.216 23.36 113.596 23.82C112.796 24.4 111.926 24.69 110.986 24.69C110.806 24.69 110.566 24.6 110.266 24.42C109.986 24.26 109.796 24.02 109.696 23.7C109.596 23.38 109.546 23.07 109.546 22.77C109.546 21.73 109.746 20.7 110.146 19.68C110.086 19.72 109.806 20.15 109.306 20.97C108.826 21.77 108.226 22.53 107.506 23.25C106.806 23.97 106.096 24.33 105.376 24.33C105.036 24.33 104.646 24.24 104.206 24.06C103.406 23.7 103.006 23.04 103.006 22.08C103.006 20.9 103.406 19.69 104.206 18.45C105.026 17.19 105.546 16.52 105.766 16.44C106.066 16.36 106.346 16.32 106.606 16.32C106.886 16.32 107.166 16.38 107.446 16.5C107.726 16.6 107.686 16.78 107.326 17.04C105.946 18.3 104.966 19.7 104.386 21.24C104.166 21.84 104.056 22.35 104.056 22.77C104.056 23.17 104.156 23.43 104.356 23.55C104.576 23.67 104.786 23.73 104.986 23.73C105.466 23.73 106.116 23.4 106.936 22.74C107.776 22.06 108.926 20.66 110.386 18.54C110.586 18.24 110.936 17.66 111.436 16.8C111.936 15.92 112.236 15.4 112.336 15.24C112.656 15.24 113.026 15.32 113.446 15.48C113.886 15.62 114.036 15.81 113.896 16.05C112.936 17.65 112.256 18.83 111.856 19.59C111.476 20.35 111.216 21.24 111.076 22.26C111.056 22.44 111.046 22.67 111.046 22.95C111.046 23.23 111.126 23.46 111.286 23.64C111.586 23.96 111.996 23.98 112.516 23.7C113.056 23.4 113.786 22.84 114.706 22.02C115.626 21.18 116.366 20.36 116.926 19.56C117.006 19.46 117.096 19.44 117.196 19.5C117.316 19.54 117.376 19.59 117.376 19.65C117.376 19.69 117.356 19.74 117.316 19.8ZM124.458 18.54C125.358 17.74 126.288 17.06 127.248 16.5C128.208 15.94 128.968 15.59 129.528 15.45C130.088 15.31 130.638 15.24 131.178 15.24C131.718 15.24 132.228 15.42 132.708 15.78C135.448 9.42 138.068 6.24 140.568 6.24C141.408 6.24 141.978 6.48 142.278 6.96C142.418 7.2 142.488 7.41 142.488 7.59C142.488 8.09 142.268 8.73 141.828 9.51C141.408 10.27 140.748 11.11 139.848 12.03C138.948 12.95 137.658 14.09 135.978 15.45C134.298 16.79 133.368 17.54 133.188 17.7C132.548 19.18 132.048 20.61 131.688 21.99C131.328 23.37 131.148 24.4 131.148 25.08C131.148 25.76 131.268 26.3 131.508 26.7C131.628 26.96 131.808 27.11 132.048 27.15C132.288 27.21 132.488 27.18 132.648 27.06C132.828 26.96 132.958 26.87 133.038 26.79C133.138 26.71 133.248 26.63 133.368 26.55C133.508 26.49 133.608 26.48 133.668 26.52C133.728 26.56 133.718 26.67 133.638 26.85C133.478 27.05 133.328 27.22 133.188 27.36C132.868 27.58 132.488 27.69 132.048 27.69C131.628 27.69 131.348 27.68 131.208 27.66C130.248 27.5 129.768 26.8 129.768 25.56C129.768 24.36 129.928 23.25 130.248 22.23C130.688 20.83 131.088 19.67 131.448 18.75C128.248 22.47 125.978 24.33 124.638 24.33C124.318 24.33 123.968 24.23 123.588 24.03C123.228 23.85 122.918 23.59 122.658 23.25C122.398 22.89 122.268 22.51 122.268 22.11C122.268 21.71 122.358 21.33 122.538 20.97C122.938 20.13 123.578 19.32 124.458 18.54ZM132.468 16.26C132.228 16.14 131.808 16.08 131.208 16.08C130.608 16.08 129.828 16.33 128.868 16.83C127.928 17.31 127.038 17.92 126.198 18.66C125.498 19.32 124.878 20.07 124.338 20.91C123.818 21.73 123.558 22.33 123.558 22.71C123.558 23.45 123.768 23.82 124.188 23.82C124.608 23.82 125.248 23.48 126.108 22.8C128.328 20.98 130.308 19.14 132.048 17.28L132.468 16.26ZM141.258 8.7C141.518 8.22 141.648 7.82 141.648 7.5C141.648 7.16 141.498 6.99 141.198 6.99C140.918 6.99 140.538 7.17 140.058 7.53C137.858 9.21 135.868 12.02 134.088 15.96C135.388 15.12 136.748 14 138.168 12.6C139.588 11.2 140.618 9.9 141.258 8.7ZM140.598 20.7C140.958 19.96 141.138 19.39 141.138 18.99C141.138 18.59 141.088 18.28 140.988 18.06C140.908 17.82 140.948 17.62 141.107 17.46C141.288 17.3 141.508 17.24 141.768 17.28C142.168 17.38 142.368 17.83 142.368 18.63C142.368 19.43 141.898 20.48 140.958 21.78C140.978 22.32 141.258 22.59 141.798 22.59C142.338 22.59 143.158 22.01 144.258 20.85C144.778 20.25 145.098 19.86 145.218 19.68C145.358 19.5 145.478 19.44 145.578 19.5C145.678 19.54 145.728 19.58 145.728 19.62C145.728 19.82 145.368 20.34 144.648 21.18C143.508 22.58 142.498 23.28 141.618 23.28C141.038 23.28 140.628 23.03 140.388 22.53C139.988 22.95 139.598 23.34 139.218 23.7C138.438 24.36 137.568 24.69 136.608 24.69C136.068 24.69 135.618 24.56 135.258 24.3C134.558 23.88 134.208 23.13 134.208 22.05C134.208 20.87 134.608 19.67 135.408 18.45C135.868 17.73 136.408 17.1 137.028 16.56C138.008 15.7 138.938 15.27 139.818 15.27C140.038 15.27 140.248 15.3 140.448 15.36C141.048 15.56 141.348 15.94 141.348 16.5C141.348 16.96 141.228 17.19 140.988 17.19C140.888 17.15 140.838 17 140.838 16.74C140.838 16.38 140.638 16.2 140.238 16.2C139.538 16.2 138.638 16.84 137.538 18.12C136.438 19.4 135.778 20.69 135.558 21.99C135.518 22.21 135.498 22.46 135.498 22.74C135.498 23 135.588 23.31 135.768 23.67C135.948 24.01 136.278 24.18 136.758 24.18C137.258 24.18 137.798 23.96 138.378 23.52C138.958 23.08 139.478 22.52 139.938 21.84L139.848 21.66C139.768 21.34 139.808 21.08 139.968 20.88C140.128 20.68 140.338 20.62 140.598 20.7ZM154.348 15.69C154.848 15.69 155.148 15.85 155.248 16.17C155.288 16.35 155.258 16.53 155.158 16.71C155.078 16.87 155.018 17 154.978 17.1C154.938 17.2 154.908 17.28 154.888 17.34C154.788 17.54 154.688 17.73 154.588 17.91C153.448 20.19 152.848 21.64 152.788 22.26C152.768 22.44 152.758 22.67 152.758 22.95C152.758 23.23 152.838 23.46 152.998 23.64C153.278 23.96 153.678 23.98 154.198 23.7C154.718 23.42 155.438 22.86 156.358 22.02C157.298 21.18 158.058 20.36 158.638 19.56C158.718 19.46 158.808 19.44 158.908 19.5C159.008 19.54 159.058 19.59 159.058 19.65C159.058 19.69 159.038 19.74 158.998 19.8C158.698 20.34 158.158 21.03 157.378 21.87C156.098 23.25 155.028 24.1 154.168 24.42C153.668 24.6 153.248 24.69 152.908 24.69C152.108 24.69 151.578 24.31 151.318 23.55C151.278 23.41 151.258 23.24 151.258 23.04C151.258 22.34 151.578 21.28 152.218 19.86C152.118 20.08 151.728 20.58 151.048 21.36C150.868 21.56 150.728 21.56 150.628 21.36C150.608 21.32 150.598 21.27 150.598 21.21C150.598 21.13 150.638 21.04 150.718 20.94C151.698 19.72 152.468 18.69 153.028 17.85C152.988 17.75 153.008 17.62 153.088 17.46C153.488 16.34 153.838 15.75 154.138 15.69C154.198 15.69 154.268 15.69 154.348 15.69ZM156.718 11.7L156.478 12.66C156.478 12.84 156.348 13.13 156.088 13.53C155.828 13.93 155.628 14.13 155.488 14.13C154.628 14.13 154.198 13.92 154.198 13.5C154.198 13.42 154.628 13.05 155.488 12.39L155.998 12C156.318 11.72 156.518 11.58 156.598 11.58C156.678 11.58 156.718 11.62 156.718 11.7ZM163.035 15.6C164.575 15.46 165.505 15.39 165.825 15.39C166.165 15.39 166.335 15.44 166.335 15.54C166.335 15.66 166.095 15.79 165.615 15.93C165.155 16.05 164.015 16.21 162.195 16.41C162.095 16.59 161.975 16.8 161.835 17.04C161.535 17.52 161.375 17.81 161.355 17.91C160.215 20.19 159.615 21.64 159.555 22.26C159.535 22.44 159.525 22.67 159.525 22.95C159.525 23.23 159.605 23.46 159.765 23.64C160.045 23.96 160.445 23.98 160.965 23.7C161.485 23.42 162.205 22.86 163.125 22.02C164.065 21.18 164.825 20.36 165.405 19.56C165.485 19.46 165.585 19.44 165.705 19.5C166.005 19.64 165.485 20.43 164.145 21.87C162.865 23.25 161.795 24.1 160.935 24.42C160.435 24.6 160.015 24.69 159.675 24.69C158.875 24.69 158.345 24.31 158.085 23.55C158.045 23.41 158.025 23.24 158.025 23.04C158.025 22.34 158.345 21.28 158.985 19.86C158.885 20.08 158.495 20.58 157.815 21.36C157.635 21.56 157.495 21.56 157.395 21.36C157.375 21.32 157.365 21.27 157.365 21.21C157.365 21.13 157.405 21.04 157.485 20.94C158.465 19.72 159.235 18.69 159.795 17.85C159.795 17.83 160.015 17.41 160.455 16.59C160.255 16.63 160.045 16.65 159.825 16.65C159.625 16.65 159.475 16.59 159.375 16.47C159.275 16.33 159.265 16.17 159.345 15.99C159.485 15.67 160.015 15.49 160.935 15.45C160.955 15.41 160.995 15.39 161.055 15.39L162.555 12.6C162.635 12.44 162.725 12.28 162.825 12.12C162.925 11.94 162.995 11.81 163.035 11.73C163.095 11.63 163.155 11.53 163.215 11.43C163.275 11.33 163.325 11.26 163.365 11.22C163.405 11.18 163.445 11.14 163.485 11.1C163.565 10.98 163.795 10.92 164.175 10.92C164.575 10.92 164.845 11.03 164.985 11.25C165.045 11.33 165.075 11.47 165.075 11.67C165.075 11.85 165.005 12.06 164.865 12.3C164.725 12.52 164.575 12.68 164.415 12.78C164.255 12.88 164.145 12.99 164.085 13.11L162.645 15.63L163.035 15.6ZM175.525 24.75C174.505 24.75 173.995 24.14 173.995 22.92C173.995 21.68 174.875 20.16 176.635 18.36C176.775 18.22 176.875 18.11 176.935 18.03L177.145 17.73C177.425 17.35 177.555 17.11 177.535 17.01L177.445 16.74C177.365 16.5 177.035 16.33 176.455 16.23C175.875 16.11 175.405 16.05 175.045 16.05C173.245 18.59 172.205 20.04 171.925 20.4C171.645 20.76 171.455 20.91 171.355 20.85C171.255 20.79 171.205 20.72 171.205 20.64C171.205 20.56 171.265 20.44 171.385 20.28C172.465 18.96 173.395 17.55 174.175 16.05C173.935 16.01 173.755 15.93 173.635 15.81C173.515 15.67 173.505 15.45 173.605 15.15C173.705 14.83 174.005 14.41 174.505 13.89C175.025 13.37 175.475 13.02 175.855 12.84C176.235 12.66 176.475 12.55 176.575 12.51C176.675 12.47 176.785 12.45 176.905 12.45C177.145 12.45 177.065 12.81 176.665 13.53L175.495 15.39C176.395 15.45 177.165 15.48 177.805 15.48L178.855 15.45C179.195 15.45 179.445 15.5 179.605 15.6C179.765 15.68 179.805 15.83 179.725 16.05C179.585 16.43 179.235 16.94 178.675 17.58C177.475 18.98 176.575 20.47 175.975 22.05C175.835 22.43 175.765 22.76 175.765 23.04C175.765 23.62 175.975 23.91 176.395 23.91C176.535 23.91 176.795 23.8 177.175 23.58C177.575 23.36 178.235 22.84 179.155 22.02C180.075 21.18 180.815 20.36 181.375 19.56C181.455 19.46 181.545 19.44 181.645 19.5C181.765 19.54 181.825 19.59 181.825 19.65C181.825 19.69 181.805 19.74 181.765 19.8C181.465 20.34 180.925 21.03 180.145 21.87C179.365 22.71 178.605 23.39 177.865 23.91C177.145 24.47 176.365 24.75 175.525 24.75ZM183.908 15.69C184.408 15.69 184.708 15.85 184.808 16.17C184.848 16.35 184.818 16.53 184.718 16.71C184.638 16.87 184.578 17 184.538 17.1C184.498 17.2 184.468 17.28 184.448 17.34C184.348 17.54 184.248 17.73 184.148 17.91C183.008 20.19 182.408 21.64 182.348 22.26C182.328 22.44 182.318 22.67 182.318 22.95C182.318 23.23 182.398 23.46 182.558 23.64C182.838 23.96 183.238 23.98 183.758 23.7C184.278 23.42 184.998 22.86 185.918 22.02C186.858 21.18 187.618 20.36 188.198 19.56C188.278 19.46 188.368 19.44 188.468 19.5C188.568 19.54 188.618 19.59 188.618 19.65C188.618 19.69 188.598 19.74 188.558 19.8C188.258 20.34 187.718 21.03 186.938 21.87C185.658 23.25 184.588 24.1 183.728 24.42C183.228 24.6 182.808 24.69 182.468 24.69C181.668 24.69 181.138 24.31 180.878 23.55C180.838 23.41 180.818 23.24 180.818 23.04C180.818 22.34 181.138 21.28 181.778 19.86C181.678 20.08 181.288 20.58 180.608 21.36C180.428 21.56 180.288 21.56 180.188 21.36C180.168 21.32 180.158 21.27 180.158 21.21C180.158 21.13 180.198 21.04 180.278 20.94C181.258 19.72 182.028 18.69 182.588 17.85C182.548 17.75 182.568 17.62 182.648 17.46C183.048 16.34 183.398 15.75 183.698 15.69C183.758 15.69 183.828 15.69 183.908 15.69ZM186.278 11.7L186.038 12.66C186.038 12.84 185.908 13.13 185.648 13.53C185.388 13.93 185.188 14.13 185.048 14.13C184.188 14.13 183.758 13.92 183.758 13.5C183.758 13.42 184.188 13.05 185.048 12.39L185.558 12C185.878 11.72 186.078 11.58 186.158 11.58C186.238 11.58 186.278 11.62 186.278 11.7ZM187.016 35.43C186.856 35.43 186.656 35.4 186.416 35.34C185.396 35.08 184.886 34.54 184.886 33.72C184.886 32.92 185.416 31.91 186.476 30.69C187.516 29.47 189.726 27.74 193.106 25.5C194.546 22.56 195.546 20.23 196.106 18.51C194.986 19.87 194.186 20.81 193.706 21.33C191.906 23.33 190.456 24.33 189.356 24.33C189.036 24.33 188.686 24.23 188.306 24.03C187.946 23.85 187.636 23.59 187.376 23.25C187.116 22.89 186.986 22.51 186.986 22.11C186.986 21.05 187.726 19.86 189.206 18.54C190.086 17.74 191.006 17.06 191.966 16.5C192.926 15.94 193.686 15.59 194.246 15.45C194.806 15.31 195.346 15.24 195.866 15.24C196.386 15.24 196.846 15.38 197.246 15.66C197.646 15.94 197.846 16.22 197.846 16.5C197.846 16.66 197.766 16.71 197.606 16.65C197.386 16.27 196.896 16.08 196.136 16.08C195.396 16.08 194.546 16.33 193.586 16.83C192.646 17.31 191.796 17.89 191.036 18.57C190.276 19.23 189.626 19.99 189.086 20.85C188.566 21.69 188.306 22.31 188.306 22.71C188.306 23.41 188.506 23.76 188.906 23.76C189.466 23.76 190.326 23.3 191.486 22.38C193.206 21.04 194.856 19.41 196.436 17.49C196.696 17.11 197.236 17.12 198.056 17.52C198.376 17.68 198.506 17.82 198.446 17.94C198.186 18.52 197.706 19.53 197.006 20.97C196.326 22.39 195.816 23.46 195.476 24.18C195.936 23.94 196.716 23.34 197.816 22.38C198.936 21.4 199.916 20.42 200.756 19.44C201.196 18.92 201.416 18.84 201.416 19.2C201.416 19.7 200.216 21.02 197.816 23.16C196.436 24.4 195.456 25.18 194.876 25.5C193.176 29 192.036 31.2 191.456 32.1C189.956 34.32 188.476 35.43 187.016 35.43ZM192.536 26.64C190.136 28.44 188.416 29.86 187.376 30.9C186.336 31.96 185.816 32.95 185.816 33.87C185.816 34.15 185.906 34.35 186.086 34.47C186.266 34.59 186.456 34.65 186.656 34.65C186.856 34.65 187.146 34.5 187.526 34.2C187.906 33.9 188.226 33.6 188.486 33.3C188.766 33.02 189.006 32.75 189.206 32.49C189.406 32.25 189.626 31.93 189.866 31.53C190.126 31.15 190.326 30.85 190.466 30.63C190.606 30.41 190.796 30.06 191.036 29.58C191.296 29.12 191.466 28.8 191.546 28.62C191.646 28.46 191.816 28.12 192.056 27.6C192.316 27.08 192.476 26.76 192.536 26.64ZM210.566 6.45C210.926 6.31 211.236 6.24 211.496 6.24C212.376 6.24 212.956 6.48 213.236 6.96C213.396 7.2 213.476 7.41 213.476 7.59C213.476 8.95 212.336 10.66 210.056 12.72C208.036 14.5 206.176 16.03 204.476 17.31C203.916 18.57 203.336 20.12 202.736 21.96C203.456 21.08 204.366 20.06 205.466 18.9C207.686 16.6 209.236 15.45 210.116 15.45C210.556 15.45 210.786 15.67 210.806 16.11C210.846 16.57 210.746 17.01 210.506 17.43C210.286 17.85 210.076 18.24 209.876 18.6C208.936 20.16 208.466 21.55 208.466 22.77C208.466 23.17 208.546 23.46 208.706 23.64C208.986 23.96 209.386 23.98 209.906 23.7C210.426 23.42 211.146 22.86 212.066 22.02C213.006 21.18 213.766 20.36 214.346 19.56C214.446 19.46 214.536 19.44 214.616 19.5C214.716 19.54 214.766 19.59 214.766 19.65C214.766 19.69 214.746 19.74 214.706 19.8C214.406 20.34 213.866 21.03 213.086 21.87C212.306 22.69 211.676 23.28 211.196 23.64C210.276 24.34 209.396 24.69 208.556 24.69C207.796 24.69 207.286 24.31 207.026 23.55C206.966 23.37 206.936 23.16 206.936 22.92C206.936 22.66 206.956 22.39 206.996 22.11C207.096 21.27 207.626 19.96 208.586 18.18C208.786 17.82 208.886 17.57 208.886 17.43C208.886 17.27 208.806 17.19 208.646 17.19C208.326 17.19 207.706 17.59 206.786 18.39C206.166 18.97 205.246 20.07 204.026 21.69C202.826 23.29 202.146 24.14 201.986 24.24C201.266 24.6 200.816 24.78 200.636 24.78C200.476 24.78 200.386 24.75 200.366 24.69C200.346 24.65 200.356 24.59 200.396 24.51C200.436 24.43 200.596 23.99 200.876 23.19C201.816 20.53 202.456 18.77 202.796 17.91C202.136 18.75 201.316 19.7 200.336 20.76C200.176 20.92 200.096 20.89 200.096 20.67C200.096 20.43 200.186 20.19 200.366 19.95C200.546 19.71 200.916 19.25 201.476 18.57C202.056 17.87 202.466 17.35 202.706 17.01C202.526 16.91 202.426 16.77 202.406 16.59C202.406 16.41 202.466 16.29 202.586 16.23C202.726 16.15 202.946 16.17 203.246 16.29C203.446 16.01 203.626 15.7 203.786 15.36C206.166 10.24 208.426 7.27 210.566 6.45ZM212.246 8.7C212.506 8.22 212.636 7.82 212.636 7.5C212.636 7.16 212.486 6.99 212.186 6.99C211.906 6.99 211.526 7.17 211.046 7.53C208.846 9.21 206.856 12.02 205.076 15.96C206.376 15.12 207.736 14 209.156 12.6C210.576 11.2 211.606 9.9 212.246 8.7ZM218.758 15.6C220.298 15.46 221.228 15.39 221.548 15.39C221.888 15.39 222.058 15.44 222.058 15.54C222.058 15.66 221.818 15.79 221.338 15.93C220.878 16.05 219.738 16.21 217.918 16.41C217.818 16.59 217.698 16.8 217.558 17.04C217.258 17.52 217.098 17.81 217.078 17.91C215.938 20.19 215.338 21.64 215.278 22.26C215.258 22.44 215.248 22.67 215.248 22.95C215.248 23.23 215.328 23.46 215.488 23.64C215.768 23.96 216.168 23.98 216.688 23.7C217.208 23.42 217.928 22.86 218.848 22.02C219.788 21.18 220.548 20.36 221.128 19.56C221.208 19.46 221.308 19.44 221.428 19.5C221.728 19.64 221.208 20.43 219.868 21.87C218.588 23.25 217.518 24.1 216.658 24.42C216.158 24.6 215.738 24.69 215.398 24.69C214.598 24.69 214.068 24.31 213.808 23.55C213.768 23.41 213.748 23.24 213.748 23.04C213.748 22.34 214.068 21.28 214.708 19.86C214.608 20.08 214.218 20.58 213.538 21.36C213.358 21.56 213.218 21.56 213.118 21.36C213.098 21.32 213.088 21.27 213.088 21.21C213.088 21.13 213.128 21.04 213.208 20.94C214.188 19.72 214.958 18.69 215.518 17.85C215.518 17.83 215.738 17.41 216.178 16.59C215.978 16.63 215.768 16.65 215.548 16.65C215.348 16.65 215.198 16.59 215.098 16.47C214.998 16.33 214.988 16.17 215.068 15.99C215.208 15.67 215.738 15.49 216.658 15.45C216.678 15.41 216.718 15.39 216.778 15.39L218.278 12.6C218.358 12.44 218.448 12.28 218.548 12.12C218.648 11.94 218.718 11.81 218.758 11.73C218.818 11.63 218.878 11.53 218.938 11.43C218.998 11.33 219.048 11.26 219.088 11.22C219.128 11.18 219.168 11.14 219.208 11.1C219.288 10.98 219.518 10.92 219.898 10.92C220.298 10.92 220.568 11.03 220.708 11.25C220.768 11.33 220.798 11.47 220.798 11.67C220.798 11.85 220.728 12.06 220.588 12.3C220.448 12.52 220.298 12.68 220.138 12.78C219.978 12.88 219.868 12.99 219.808 13.11L218.368 15.63L218.758 15.6ZM224.055 23.73C224.055 24.13 223.615 24.85 222.735 25.89C221.655 27.29 220.975 27.99 220.695 27.99C220.595 27.99 220.545 27.91 220.545 27.75C220.545 27.71 220.825 27.36 221.385 26.7C221.945 26.06 222.305 25.46 222.465 24.9C222.645 24.36 222.665 23.97 222.525 23.73C222.185 23.07 222.435 22.74 223.275 22.74C223.495 22.74 223.675 22.86 223.815 23.1C223.975 23.32 224.055 23.53 224.055 23.73ZM235.529 15.69C236.029 15.69 236.329 15.85 236.429 16.17C236.469 16.35 236.439 16.53 236.339 16.71C236.259 16.87 236.199 17 236.159 17.1C236.119 17.2 236.089 17.28 236.069 17.34C235.969 17.54 235.869 17.73 235.769 17.91C234.629 20.19 234.029 21.64 233.969 22.26C233.949 22.44 233.939 22.67 233.939 22.95C233.939 23.23 234.019 23.46 234.179 23.64C234.459 23.96 234.859 23.98 235.379 23.7C235.899 23.42 236.619 22.86 237.539 22.02C238.479 21.18 239.239 20.36 239.819 19.56C239.899 19.46 239.989 19.44 240.089 19.5C240.189 19.54 240.239 19.59 240.239 19.65C240.239 19.69 240.219 19.74 240.179 19.8C239.879 20.34 239.339 21.03 238.559 21.87C237.279 23.25 236.209 24.1 235.349 24.42C234.849 24.6 234.429 24.69 234.089 24.69C233.289 24.69 232.759 24.31 232.499 23.55C232.459 23.41 232.439 23.24 232.439 23.04C232.439 22.34 232.759 21.28 233.399 19.86C233.299 20.08 232.909 20.58 232.229 21.36C232.049 21.56 231.909 21.56 231.809 21.36C231.789 21.32 231.779 21.27 231.779 21.21C231.779 21.13 231.819 21.04 231.899 20.94C232.879 19.72 233.649 18.69 234.209 17.85C234.169 17.75 234.189 17.62 234.269 17.46C234.669 16.34 235.019 15.75 235.319 15.69C235.379 15.69 235.449 15.69 235.529 15.69ZM237.899 11.7L237.659 12.66C237.659 12.84 237.529 13.13 237.269 13.53C237.009 13.93 236.809 14.13 236.669 14.13C235.809 14.13 235.379 13.92 235.379 13.5C235.379 13.42 235.809 13.05 236.669 12.39L237.179 12C237.499 11.72 237.699 11.58 237.779 11.58C237.859 11.58 237.899 11.62 237.899 11.7ZM244.217 15.6C245.757 15.46 246.687 15.39 247.007 15.39C247.347 15.39 247.517 15.44 247.517 15.54C247.517 15.66 247.277 15.79 246.797 15.93C246.337 16.05 245.197 16.21 243.377 16.41C243.277 16.59 243.157 16.8 243.017 17.04C242.717 17.52 242.557 17.81 242.537 17.91C241.397 20.19 240.797 21.64 240.737 22.26C240.717 22.44 240.707 22.67 240.707 22.95C240.707 23.23 240.787 23.46 240.947 23.64C241.227 23.96 241.627 23.98 242.147 23.7C242.667 23.42 243.387 22.86 244.307 22.02C245.247 21.18 246.007 20.36 246.587 19.56C246.667 19.46 246.767 19.44 246.887 19.5C247.187 19.64 246.667 20.43 245.327 21.87C244.047 23.25 242.977 24.1 242.117 24.42C241.617 24.6 241.197 24.69 240.857 24.69C240.057 24.69 239.527 24.31 239.267 23.55C239.227 23.41 239.207 23.24 239.207 23.04C239.207 22.34 239.527 21.28 240.167 19.86C240.067 20.08 239.677 20.58 238.997 21.36C238.817 21.56 238.677 21.56 238.577 21.36C238.557 21.32 238.547 21.27 238.547 21.21C238.547 21.13 238.587 21.04 238.667 20.94C239.647 19.72 240.417 18.69 240.977 17.85C240.977 17.83 241.197 17.41 241.637 16.59C241.437 16.63 241.227 16.65 241.007 16.65C240.807 16.65 240.657 16.59 240.557 16.47C240.457 16.33 240.447 16.17 240.527 15.99C240.667 15.67 241.197 15.49 242.117 15.45C242.137 15.41 242.177 15.39 242.237 15.39L243.737 12.6C243.817 12.44 243.907 12.28 244.007 12.12C244.107 11.94 244.177 11.81 244.217 11.73C244.277 11.63 244.337 11.53 244.397 11.43C244.457 11.33 244.507 11.26 244.547 11.22C244.587 11.18 244.627 11.14 244.667 11.1C244.747 10.98 244.977 10.92 245.357 10.92C245.757 10.92 246.027 11.03 246.167 11.25C246.227 11.33 246.257 11.47 246.257 11.67C246.257 11.85 246.187 12.06 246.047 12.3C245.907 12.52 245.757 12.68 245.597 12.78C245.437 12.88 245.327 12.99 245.267 13.11L243.827 15.63L244.217 15.6ZM257.337 16.5C257.057 16.74 256.527 17.37 255.747 18.39C254.987 19.39 254.457 20.28 254.157 21.06C253.877 21.84 253.737 22.48 253.737 22.98C253.737 23.48 253.947 23.73 254.367 23.73C254.807 23.73 255.417 23.42 256.197 22.8C257.457 21.76 258.877 19.83 260.457 17.01C260.537 16.87 260.677 16.8 260.877 16.8C261.097 16.8 261.387 16.86 261.747 16.98C262.127 17.08 262.317 17.22 262.317 17.4C262.317 17.46 262.297 17.52 262.257 17.58C261.417 18.94 260.887 20.48 260.667 22.2C260.587 22.78 260.687 23.25 260.967 23.61C261.227 23.97 261.757 23.93 262.557 23.49C263.797 22.87 264.927 21.9 265.947 20.58C266.987 19.26 267.627 18.07 267.867 17.01C267.947 16.79 267.987 16.55 267.987 16.29C267.987 15.17 267.667 14.49 267.027 14.25C266.847 14.17 266.647 14.15 266.427 14.19C266.207 14.21 266.077 14.2 266.037 14.16C265.997 14.1 265.987 14.04 266.007 13.98C266.047 13.8 266.457 13.71 267.237 13.71C268.537 13.71 269.187 14.38 269.187 15.72C269.187 17.06 268.427 18.67 266.907 20.55C265.947 21.69 264.817 22.74 263.517 23.7C262.797 24.2 262.047 24.45 261.267 24.45C260.247 24.45 259.617 24.07 259.377 23.31C259.237 22.95 259.167 22.38 259.167 21.6C259.167 20.82 259.267 20.18 259.467 19.68C258.927 20.76 258.337 21.67 257.697 22.41C257.057 23.15 256.507 23.66 256.047 23.94C255.607 24.2 255.157 24.33 254.697 24.33C253.897 24.33 253.337 24.12 253.017 23.7C252.697 23.26 252.537 22.79 252.537 22.29C252.537 21.63 252.677 20.92 252.957 20.16C253.257 19.38 253.547 18.77 253.827 18.33C254.127 17.87 254.507 17.33 254.967 16.71C255.447 16.07 255.757 15.72 255.897 15.66C256.197 15.58 256.477 15.54 256.737 15.54C257.017 15.54 257.257 15.58 257.457 15.66C257.657 15.74 257.757 15.84 257.757 15.96C257.777 16.08 257.637 16.26 257.337 16.5ZM272.121 15.69C272.621 15.69 272.921 15.85 273.021 16.17C273.061 16.35 273.031 16.53 272.931 16.71C272.851 16.87 272.791 17 272.751 17.1C272.711 17.2 272.681 17.28 272.661 17.34C272.561 17.54 272.461 17.73 272.361 17.91C271.221 20.19 270.621 21.64 270.561 22.26C270.541 22.44 270.531 22.67 270.531 22.95C270.531 23.23 270.611 23.46 270.771 23.64C271.051 23.96 271.451 23.98 271.971 23.7C272.491 23.42 273.211 22.86 274.131 22.02C275.071 21.18 275.831 20.36 276.411 19.56C276.491 19.46 276.581 19.44 276.681 19.5C276.781 19.54 276.831 19.59 276.831 19.65C276.831 19.69 276.811 19.74 276.771 19.8C276.471 20.34 275.931 21.03 275.151 21.87C273.871 23.25 272.801 24.1 271.941 24.42C271.441 24.6 271.021 24.69 270.681 24.69C269.881 24.69 269.351 24.31 269.091 23.55C269.051 23.41 269.031 23.24 269.031 23.04C269.031 22.34 269.351 21.28 269.991 19.86C269.891 20.08 269.501 20.58 268.821 21.36C268.641 21.56 268.501 21.56 268.401 21.36C268.381 21.32 268.371 21.27 268.371 21.21C268.371 21.13 268.411 21.04 268.491 20.94C269.471 19.72 270.241 18.69 270.801 17.85C270.761 17.75 270.781 17.62 270.861 17.46C271.261 16.34 271.611 15.75 271.911 15.69C271.971 15.69 272.041 15.69 272.121 15.69ZM274.491 11.7L274.251 12.66C274.251 12.84 274.121 13.13 273.861 13.53C273.601 13.93 273.401 14.13 273.261 14.13C272.401 14.13 271.971 13.92 271.971 13.5C271.971 13.42 272.401 13.05 273.261 12.39L273.771 12C274.091 11.72 274.291 11.58 274.371 11.58C274.451 11.58 274.491 11.62 274.491 11.7ZM286.419 8.7C286.659 8.26 286.779 7.92 286.779 7.68C286.779 7.26 286.609 7.05 286.269 7.05C285.989 7.05 285.639 7.21 285.219 7.53C283.619 8.77 282.069 10.73 280.569 13.41C279.369 15.57 278.489 17.42 277.929 18.96C279.309 18.02 280.849 16.49 282.549 14.37C284.269 12.25 285.559 10.36 286.419 8.7ZM277.479 20.16C277.239 20.84 277.109 21.3 277.089 21.54C277.069 21.76 277.059 22.07 277.059 22.47C277.059 22.85 277.159 23.2 277.359 23.52C277.699 24.06 278.269 24.1 279.069 23.64C279.669 23.32 280.429 22.74 281.349 21.9C282.269 21.04 282.979 20.26 283.479 19.56C283.519 19.5 283.579 19.47 283.659 19.47C283.839 19.47 283.889 19.6 283.809 19.86C283.509 20.4 282.949 21.09 282.129 21.93C281.329 22.77 280.599 23.44 279.939 23.94C279.279 24.42 278.619 24.66 277.959 24.66C276.439 24.66 275.679 23.92 275.679 22.44C275.679 22.38 275.679 22.32 275.679 22.26C275.759 20.86 276.469 18.75 277.809 15.93C279.149 13.09 280.359 10.95 281.439 9.51L282.369 8.34C282.589 8.08 282.909 7.76 283.329 7.38C284.129 6.62 284.949 6.24 285.789 6.24C286.649 6.24 287.229 6.5 287.529 7.02C287.629 7.2 287.679 7.46 287.679 7.8C287.679 8.14 287.529 8.62 287.229 9.24C285.169 12.82 281.919 16.46 277.479 20.16ZM293.479 8.7C293.719 8.26 293.839 7.92 293.839 7.68C293.839 7.26 293.669 7.05 293.329 7.05C293.049 7.05 292.699 7.21 292.279 7.53C290.679 8.77 289.129 10.73 287.629 13.41C286.429 15.57 285.549 17.42 284.989 18.96C286.369 18.02 287.909 16.49 289.609 14.37C291.329 12.25 292.619 10.36 293.479 8.7ZM284.539 20.16C284.299 20.84 284.169 21.3 284.149 21.54C284.129 21.76 284.119 22.07 284.119 22.47C284.119 22.85 284.219 23.2 284.419 23.52C284.759 24.06 285.329 24.1 286.129 23.64C286.729 23.32 287.489 22.74 288.409 21.9C289.329 21.04 290.039 20.26 290.539 19.56C290.579 19.5 290.639 19.47 290.719 19.47C290.899 19.47 290.949 19.6 290.869 19.86C290.569 20.4 290.009 21.09 289.189 21.93C288.389 22.77 287.659 23.44 286.999 23.94C286.339 24.42 285.679 24.66 285.019 24.66C283.499 24.66 282.739 23.92 282.739 22.44C282.739 22.38 282.739 22.32 282.739 22.26C282.819 20.86 283.529 18.75 284.869 15.93C286.209 13.09 287.419 10.95 288.499 9.51L289.429 8.34C289.649 8.08 289.969 7.76 290.389 7.38C291.189 6.62 292.009 6.24 292.849 6.24C293.709 6.24 294.289 6.5 294.589 7.02C294.689 7.2 294.739 7.46 294.739 7.8C294.739 8.14 294.589 8.62 294.289 9.24C292.229 12.82 288.979 16.46 284.539 20.16ZM307.102 8.7C307.342 8.26 307.462 7.92 307.462 7.68C307.462 7.26 307.292 7.05 306.952 7.05C306.672 7.05 306.322 7.21 305.902 7.53C304.302 8.77 302.752 10.73 301.252 13.41C300.052 15.57 299.172 17.42 298.612 18.96C299.992 18.02 301.532 16.49 303.232 14.37C304.952 12.25 306.242 10.36 307.102 8.7ZM298.162 20.16C297.922 20.84 297.792 21.3 297.772 21.54C297.752 21.76 297.742 22.07 297.742 22.47C297.742 22.85 297.842 23.2 298.042 23.52C298.382 24.06 298.952 24.1 299.752 23.64C300.352 23.32 301.112 22.74 302.032 21.9C302.952 21.04 303.662 20.26 304.162 19.56C304.202 19.5 304.262 19.47 304.342 19.47C304.522 19.47 304.572 19.6 304.492 19.86C304.192 20.4 303.632 21.09 302.812 21.93C302.012 22.77 301.282 23.44 300.622 23.94C299.962 24.42 299.302 24.66 298.642 24.66C297.122 24.66 296.362 23.92 296.362 22.44C296.362 22.38 296.362 22.32 296.362 22.26C296.442 20.86 297.152 18.75 298.492 15.93C299.832 13.09 301.042 10.95 302.122 9.51L303.052 8.34C303.272 8.08 303.592 7.76 304.012 7.38C304.812 6.62 305.632 6.24 306.472 6.24C307.332 6.24 307.912 6.5 308.212 7.02C308.312 7.2 308.362 7.46 308.362 7.8C308.362 8.14 308.212 8.62 307.912 9.24C305.852 12.82 302.602 16.46 298.162 20.16ZM305.253 24.33C304.933 24.33 304.583 24.23 304.203 24.03C303.843 23.85 303.533 23.59 303.273 23.25C303.013 22.89 302.883 22.51 302.883 22.11C302.883 21.71 302.973 21.33 303.153 20.97C303.553 20.13 304.193 19.32 305.073 18.54C305.973 17.74 306.903 17.06 307.863 16.5C308.823 15.94 309.583 15.59 310.143 15.45C310.703 15.31 311.243 15.24 311.763 15.24C312.303 15.24 312.763 15.38 313.143 15.66C313.523 15.92 313.713 16.2 313.713 16.5C313.713 16.6 313.703 16.66 313.683 16.68C313.663 16.7 313.613 16.69 313.533 16.65C313.293 16.27 312.793 16.08 312.033 16.08C311.293 16.08 310.443 16.33 309.483 16.83C308.543 17.31 307.653 17.92 306.813 18.66C306.113 19.32 305.493 20.07 304.953 20.91C304.433 21.73 304.173 22.33 304.173 22.71C304.173 23.45 304.383 23.82 304.803 23.82C305.223 23.82 305.863 23.48 306.723 22.8C308.143 21.6 309.113 20.72 309.633 20.16C311.473 18.18 312.463 17.19 312.603 17.19C312.843 17.19 313.133 17.26 313.473 17.4C313.813 17.54 313.923 17.71 313.803 17.91C312.783 19.35 312.183 20.8 312.003 22.26C311.983 22.44 311.973 22.67 311.973 22.95C311.973 23.23 312.053 23.46 312.213 23.64C312.513 23.96 312.923 23.98 313.443 23.7C313.963 23.42 314.683 22.86 315.603 22.02C316.543 21.18 317.293 20.36 317.853 19.56C317.933 19.46 318.023 19.44 318.123 19.5C318.223 19.54 318.273 19.58 318.273 19.62C318.273 19.92 317.793 20.58 316.833 21.6C315.893 22.6 315.173 23.28 314.673 23.64C313.733 24.34 312.863 24.69 312.063 24.69C311.303 24.69 310.793 24.31 310.533 23.55C310.473 23.31 310.443 23.04 310.443 22.74C310.443 21.84 310.633 20.89 311.013 19.89C310.933 19.93 310.563 20.33 309.903 21.09C309.243 21.85 308.473 22.58 307.593 23.28C306.733 23.98 305.953 24.33 305.253 24.33ZM317.764 24.3C317.504 24.6 317.444 24.84 317.584 25.02C317.744 25.2 317.914 25.29 318.094 25.29C318.294 25.29 318.494 25.26 318.694 25.2C319.554 24.94 320.384 24.43 321.184 23.67C322.004 22.89 322.414 22.1 322.414 21.3C322.414 20.86 321.924 20.38 320.944 19.86C320.484 19.62 320.224 19.48 320.164 19.44C319.624 19.08 319.284 18.72 319.144 18.36C318.864 18.84 318.414 19.53 317.794 20.43C317.654 20.59 317.524 20.63 317.404 20.55C317.284 20.45 317.274 20.32 317.374 20.16C318.194 19.04 318.734 18.1 318.994 17.34C319.134 16.24 319.934 15.25 321.394 14.37C322.854 13.49 324.184 13.05 325.384 13.05C326.144 13.05 326.674 13.19 326.974 13.47C327.294 13.73 327.454 13.99 327.454 14.25C327.454 14.51 327.374 14.81 327.214 15.15C327.074 15.49 326.774 15.81 326.314 16.11C326.194 16.19 326.094 16.17 326.014 16.05C325.974 15.93 326.054 15.77 326.254 15.57C326.474 15.35 326.614 15.06 326.674 14.7C326.734 14.34 326.574 14.12 326.194 14.04C326.134 14.04 326.074 14.04 326.014 14.04C325.234 14.04 324.254 14.33 323.074 14.91C321.914 15.49 321.004 16.24 320.344 17.16C320.084 17.5 319.954 17.85 319.954 18.21C319.954 18.55 320.194 18.86 320.674 19.14C320.874 19.26 321.214 19.45 321.694 19.71C322.174 19.97 322.514 20.16 322.714 20.28C322.914 20.4 323.154 20.59 323.434 20.85C323.714 21.11 323.864 21.35 323.884 21.57C323.984 22.17 323.704 22.83 323.044 23.55C322.104 24.59 320.704 25.32 318.844 25.74C318.424 25.84 317.994 25.89 317.554 25.89C317.134 25.89 316.844 25.73 316.684 25.41C316.624 25.33 316.594 25.2 316.594 25.02C316.594 24.86 316.754 24.59 317.074 24.21C317.374 23.91 317.854 23.62 318.514 23.34C318.574 23.32 318.624 23.33 318.664 23.37C318.704 23.41 318.714 23.46 318.694 23.52C318.674 23.58 318.564 23.65 318.364 23.73C318.184 23.81 317.984 24 317.764 24.3ZM331.141 15.6C332.681 15.46 333.611 15.39 333.931 15.39C334.271 15.39 334.441 15.44 334.441 15.54C334.441 15.66 334.201 15.79 333.721 15.93C333.261 16.05 332.121 16.21 330.301 16.41C330.201 16.59 330.081 16.8 329.941 17.04C329.641 17.52 329.481 17.81 329.461 17.91C328.321 20.19 327.721 21.64 327.661 22.26C327.641 22.44 327.631 22.67 327.631 22.95C327.631 23.23 327.711 23.46 327.871 23.64C328.151 23.96 328.551 23.98 329.071 23.7C329.591 23.42 330.311 22.86 331.231 22.02C332.171 21.18 332.931 20.36 333.511 19.56C333.591 19.46 333.691 19.44 333.811 19.5C334.111 19.64 333.591 20.43 332.251 21.87C330.971 23.25 329.901 24.1 329.041 24.42C328.541 24.6 328.121 24.69 327.781 24.69C326.981 24.69 326.451 24.31 326.191 23.55C326.151 23.41 326.131 23.24 326.131 23.04C326.131 22.34 326.451 21.28 327.091 19.86C326.991 20.08 326.601 20.58 325.921 21.36C325.741 21.56 325.601 21.56 325.501 21.36C325.481 21.32 325.471 21.27 325.471 21.21C325.471 21.13 325.511 21.04 325.591 20.94C326.571 19.72 327.341 18.69 327.901 17.85C327.901 17.83 328.121 17.41 328.561 16.59C328.361 16.63 328.151 16.65 327.931 16.65C327.731 16.65 327.581 16.59 327.481 16.47C327.381 16.33 327.371 16.17 327.451 15.99C327.591 15.67 328.121 15.49 329.041 15.45C329.061 15.41 329.101 15.39 329.161 15.39L330.661 12.6C330.741 12.44 330.831 12.28 330.931 12.12C331.031 11.94 331.101 11.81 331.141 11.73C331.201 11.63 331.261 11.53 331.321 11.43C331.381 11.33 331.431 11.26 331.471 11.22C331.511 11.18 331.551 11.14 331.591 11.1C331.671 10.98 331.901 10.92 332.281 10.92C332.681 10.92 332.951 11.03 333.091 11.25C333.151 11.33 333.181 11.47 333.181 11.67C333.181 11.85 333.111 12.06 332.971 12.3C332.831 12.52 332.681 12.68 332.521 12.78C332.361 12.88 332.251 12.99 332.191 13.11L330.751 15.63L331.141 15.6ZM338.291 33.72C338.231 33.82 338.181 33.89 338.141 33.93C338.081 33.97 337.871 34.09 337.511 34.29C337.151 34.49 336.831 34.59 336.551 34.59C336.251 34.59 336.101 34.52 336.101 34.38C336.101 34.32 336.121 34.24 336.161 34.14C336.521 33.46 338.371 28.85 341.711 20.31C341.091 20.39 340.631 20.43 340.331 20.43C340.031 20.43 339.791 20.37 339.611 20.25C339.451 20.11 339.371 19.94 339.371 19.74C339.371 19.52 339.591 19.33 340.031 19.17C340.491 18.99 340.841 18.9 341.081 18.9C341.321 18.9 341.521 18.98 341.681 19.14C341.841 19.3 341.951 19.38 342.011 19.38H342.101L342.971 17.16C343.331 16.16 343.881 14.86 344.621 13.26C345.361 11.64 346.031 10.35 346.631 9.39C347.971 7.37 349.311 6.36 350.651 6.36L351.371 6.45L351.971 6.66C352.551 7 352.841 7.47 352.841 8.07C352.841 8.65 352.681 9.28 352.361 9.96C351.821 11.12 350.721 12.63 349.061 14.49C347.401 16.35 345.801 17.9 344.261 19.14C345.901 19 346.951 18.93 347.411 18.93C347.891 18.93 348.141 18.99 348.161 19.11C348.161 19.19 347.971 19.29 347.591 19.41C347.211 19.51 345.671 19.76 342.971 20.16C340.591 26.2 339.381 29.66 339.341 30.54C339.321 30.98 339.271 31.29 339.191 31.47C339.131 31.67 339.051 31.89 338.951 32.13C338.851 32.39 338.771 32.58 338.711 32.7C338.671 32.84 338.621 32.99 338.561 33.15C338.501 33.31 338.451 33.42 338.411 33.48C338.371 33.56 338.331 33.64 338.291 33.72ZM351.521 9.54C351.861 8.96 352.031 8.41 352.031 7.89C352.031 7.37 351.841 7.11 351.461 7.11C350.701 7.11 349.621 8.09 348.221 10.05C347.401 11.21 346.671 12.36 346.031 13.5C344.751 15.9 343.931 17.65 343.571 18.75L343.331 19.23C344.731 18.19 346.221 16.71 347.801 14.79C349.381 12.87 350.621 11.12 351.521 9.54ZM354.465 20.7C354.825 19.96 355.005 19.39 355.005 18.99C355.005 18.59 354.955 18.28 354.855 18.06C354.775 17.82 354.815 17.62 354.975 17.46C355.155 17.3 355.375 17.24 355.635 17.28C356.035 17.38 356.235 17.83 356.235 18.63C356.235 19.43 355.765 20.48 354.825 21.78C354.845 22.32 355.125 22.59 355.665 22.59C356.205 22.59 357.025 22.01 358.125 20.85C358.645 20.25 358.965 19.86 359.085 19.68C359.225 19.5 359.345 19.44 359.445 19.5C359.545 19.54 359.595 19.58 359.595 19.62C359.595 19.82 359.235 20.34 358.515 21.18C357.375 22.58 356.365 23.28 355.485 23.28C354.905 23.28 354.495 23.03 354.255 22.53C353.855 22.95 353.465 23.34 353.085 23.7C352.305 24.36 351.435 24.69 350.475 24.69C349.935 24.69 349.485 24.56 349.125 24.3C348.425 23.88 348.075 23.13 348.075 22.05C348.075 20.87 348.475 19.67 349.275 18.45C349.735 17.73 350.275 17.1 350.895 16.56C351.875 15.7 352.805 15.27 353.685 15.27C353.905 15.27 354.115 15.3 354.315 15.36C354.915 15.56 355.215 15.94 355.215 16.5C355.215 16.96 355.095 17.19 354.855 17.19C354.755 17.15 354.705 17 354.705 16.74C354.705 16.38 354.505 16.2 354.105 16.2C353.405 16.2 352.505 16.84 351.405 18.12C350.305 19.4 349.645 20.69 349.425 21.99C349.385 22.21 349.365 22.46 349.365 22.74C349.365 23 349.455 23.31 349.635 23.67C349.815 24.01 350.145 24.18 350.625 24.18C351.125 24.18 351.665 23.96 352.245 23.52C352.825 23.08 353.345 22.52 353.805 21.84L353.715 21.66C353.635 21.34 353.675 21.08 353.835 20.88C353.995 20.68 354.205 20.62 354.465 20.7ZM362.732 24.75C361.712 24.75 361.202 24.14 361.202 22.92C361.202 21.68 362.082 20.16 363.842 18.36C363.982 18.22 364.082 18.11 364.142 18.03L364.352 17.73C364.632 17.35 364.762 17.11 364.742 17.01L364.652 16.74C364.572 16.5 364.242 16.33 363.662 16.23C363.082 16.11 362.612 16.05 362.252 16.05C360.452 18.59 359.412 20.04 359.132 20.4C358.852 20.76 358.662 20.91 358.562 20.85C358.462 20.79 358.412 20.72 358.412 20.64C358.412 20.56 358.472 20.44 358.592 20.28C359.672 18.96 360.602 17.55 361.382 16.05C361.142 16.01 360.962 15.93 360.842 15.81C360.722 15.67 360.712 15.45 360.812 15.15C360.912 14.83 361.212 14.41 361.712 13.89C362.232 13.37 362.682 13.02 363.062 12.84C363.442 12.66 363.682 12.55 363.782 12.51C363.882 12.47 363.992 12.45 364.112 12.45C364.352 12.45 364.272 12.81 363.872 13.53L362.702 15.39C363.602 15.45 364.372 15.48 365.012 15.48L366.062 15.45C366.402 15.45 366.652 15.5 366.812 15.6C366.972 15.68 367.012 15.83 366.932 16.05C366.792 16.43 366.442 16.94 365.882 17.58C364.682 18.98 363.782 20.47 363.182 22.05C363.042 22.43 362.972 22.76 362.972 23.04C362.972 23.62 363.182 23.91 363.602 23.91C363.742 23.91 364.002 23.8 364.382 23.58C364.782 23.36 365.442 22.84 366.362 22.02C367.282 21.18 368.022 20.36 368.582 19.56C368.662 19.46 368.752 19.44 368.852 19.5C368.972 19.54 369.032 19.59 369.032 19.65C369.032 19.69 369.012 19.74 368.972 19.8C368.672 20.34 368.132 21.03 367.352 21.87C366.572 22.71 365.812 23.39 365.072 23.91C364.352 24.47 363.572 24.75 362.732 24.75ZM375.165 15.27C376.245 15.27 376.785 15.79 376.785 16.83C376.785 17.37 376.635 17.81 376.335 18.15C375.835 18.89 375.025 19.54 373.905 20.1C372.785 20.64 371.835 20.94 371.055 21C370.775 21.02 370.625 20.94 370.605 20.76C370.585 20.68 370.605 20.63 370.665 20.61C370.745 20.59 370.805 20.58 370.845 20.58C371.305 20.54 371.895 20.32 372.615 19.92C373.955 19.2 374.935 18.46 375.555 17.7C375.815 17.34 375.945 17 375.945 16.68C375.945 16.34 375.785 16.17 375.465 16.17C375.205 16.17 374.855 16.28 374.415 16.5C373.475 16.94 372.485 17.71 371.445 18.81C370.405 19.89 369.725 20.95 369.405 21.99C369.305 22.31 369.255 22.63 369.255 22.95C369.255 23.25 369.385 23.54 369.645 23.82C369.905 24.1 370.305 24.24 370.845 24.24C371.445 24.24 372.135 24.08 372.915 23.76C375.175 22.84 376.915 21.45 378.135 19.59C378.255 19.43 378.365 19.4 378.465 19.5C378.545 19.54 378.585 19.59 378.585 19.65C378.585 19.71 378.555 19.78 378.495 19.86C377.895 20.86 377.135 21.75 376.215 22.53C374.435 24.05 372.705 24.81 371.025 24.81C369.585 24.81 368.575 24.38 367.995 23.52C367.775 23.18 367.665 22.77 367.665 22.29C367.665 21.81 367.795 21.24 368.055 20.58C368.555 19.44 369.625 18.27 371.265 17.07C372.905 15.87 374.205 15.27 375.165 15.27ZM379.375 17.31C379.375 16.35 379.095 15.87 378.535 15.87C378.415 15.87 378.285 15.89 378.145 15.93C378.025 15.95 377.965 15.92 377.965 15.84C377.965 15.76 378.025 15.66 378.145 15.54C378.265 15.44 378.675 15.36 379.375 15.3C380.215 15.3 380.735 15.42 380.935 15.66C381.155 15.9 381.265 16.14 381.265 16.38C381.265 16.62 381.075 17.22 380.695 18.18C380.335 19.12 380.145 19.61 380.125 19.65C379.525 21.45 379.255 22.58 379.315 23.04C381.115 20.62 382.295 19.11 382.855 18.51C384.035 17.21 384.875 16.32 385.375 15.84C386.535 14.76 387.555 14.03 388.435 13.65C388.695 13.55 388.925 13.5 389.125 13.5C389.785 13.5 390.235 13.7 390.475 14.1C390.555 14.2 390.595 14.3 390.595 14.4C390.595 14.48 390.565 14.58 390.505 14.7C390.445 14.82 390.335 14.82 390.175 14.7C390.015 14.56 389.655 14.49 389.095 14.49C388.175 14.49 386.635 15.57 384.475 17.73C383.175 19.07 381.975 20.47 380.875 21.93C379.795 23.39 379.215 24.43 379.135 25.05C379.135 25.21 378.985 25.29 378.685 25.29C378.385 25.29 378.155 25.16 377.995 24.9C377.855 24.66 377.785 24.45 377.785 24.27C377.785 24.11 377.795 23.97 377.815 23.85C377.835 23.71 378.035 22.97 378.415 21.63C378.795 20.29 379.035 19.4 379.135 18.96C378.895 19.36 378.565 19.85 378.145 20.43C378.005 20.59 377.885 20.64 377.785 20.58C377.705 20.5 377.665 20.43 377.665 20.37C377.665 20.31 377.685 20.24 377.725 20.16C378.565 19.02 379.115 18.07 379.375 17.31ZM394.208 15.27C395.288 15.27 395.828 15.79 395.828 16.83C395.828 17.37 395.678 17.81 395.378 18.15C394.878 18.89 394.068 19.54 392.948 20.1C391.828 20.64 390.878 20.94 390.098 21C389.818 21.02 389.668 20.94 389.648 20.76C389.628 20.68 389.648 20.63 389.708 20.61C389.788 20.59 389.848 20.58 389.888 20.58C390.348 20.54 390.938 20.32 391.658 19.92C392.998 19.2 393.978 18.46 394.598 17.7C394.858 17.34 394.988 17 394.988 16.68C394.988 16.34 394.828 16.17 394.508 16.17C394.248 16.17 393.898 16.28 393.458 16.5C392.518 16.94 391.528 17.71 390.488 18.81C389.448 19.89 388.768 20.95 388.448 21.99C388.348 22.31 388.298 22.63 388.298 22.95C388.298 23.25 388.428 23.54 388.688 23.82C388.948 24.1 389.348 24.24 389.888 24.24C390.488 24.24 391.178 24.08 391.958 23.76C394.218 22.84 395.958 21.45 397.178 19.59C397.298 19.43 397.408 19.4 397.508 19.5C397.588 19.54 397.628 19.59 397.628 19.65C397.628 19.71 397.598 19.78 397.538 19.86C396.938 20.86 396.178 21.75 395.258 22.53C393.478 24.05 391.748 24.81 390.068 24.81C388.628 24.81 387.618 24.38 387.038 23.52C386.818 23.18 386.708 22.77 386.708 22.29C386.708 21.81 386.838 21.24 387.098 20.58C387.598 19.44 388.668 18.27 390.308 17.07C391.948 15.87 393.248 15.27 394.208 15.27ZM400.818 24.75C399.798 24.75 399.288 24.14 399.288 22.92C399.288 21.68 400.168 20.16 401.928 18.36C402.068 18.22 402.168 18.11 402.228 18.03L402.438 17.73C402.718 17.35 402.848 17.11 402.828 17.01L402.738 16.74C402.658 16.5 402.328 16.33 401.748 16.23C401.168 16.11 400.698 16.05 400.338 16.05C398.538 18.59 397.498 20.04 397.218 20.4C396.938 20.76 396.748 20.91 396.648 20.85C396.548 20.79 396.498 20.72 396.498 20.64C396.498 20.56 396.558 20.44 396.678 20.28C397.758 18.96 398.688 17.55 399.468 16.05C399.228 16.01 399.048 15.93 398.928 15.81C398.808 15.67 398.798 15.45 398.898 15.15C398.998 14.83 399.298 14.41 399.798 13.89C400.318 13.37 400.768 13.02 401.148 12.84C401.528 12.66 401.768 12.55 401.868 12.51C401.968 12.47 402.078 12.45 402.198 12.45C402.438 12.45 402.358 12.81 401.958 13.53L400.788 15.39C401.688 15.45 402.458 15.48 403.098 15.48L404.148 15.45C404.488 15.45 404.738 15.5 404.898 15.6C405.058 15.68 405.098 15.83 405.018 16.05C404.878 16.43 404.528 16.94 403.968 17.58C402.768 18.98 401.868 20.47 401.268 22.05C401.128 22.43 401.058 22.76 401.058 23.04C401.058 23.62 401.268 23.91 401.688 23.91C401.828 23.91 402.088 23.8 402.468 23.58C402.868 23.36 403.528 22.84 404.448 22.02C405.368 21.18 406.108 20.36 406.668 19.56C406.748 19.46 406.838 19.44 406.938 19.5C407.058 19.54 407.118 19.59 407.118 19.65C407.118 19.69 407.098 19.74 407.058 19.8C406.758 20.34 406.218 21.03 405.438 21.87C404.658 22.71 403.898 23.39 403.158 23.91C402.438 24.47 401.658 24.75 400.818 24.75ZM409.771 22.68V23.19C409.771 23.33 409.661 23.56 409.441 23.88C409.221 24.2 409.051 24.36 408.931 24.36C408.271 24.36 407.941 24.2 407.941 23.88C407.941 23.72 408.141 23.48 408.541 23.16C409.101 22.72 409.441 22.5 409.561 22.5C409.701 22.5 409.771 22.56 409.771 22.68ZM417.351 7.14C417.351 7.54 416.931 8.27 416.091 9.33C414.871 10.73 414.161 11.43 413.961 11.43C413.881 11.43 413.841 11.37 413.841 11.25C413.841 11.13 414.131 10.75 414.711 10.11C415.291 9.45 415.691 8.76 415.911 8.04C416.051 7.72 416.051 7.43 415.911 7.17C415.791 6.91 415.741 6.68 415.761 6.48C415.901 6.28 416.121 6.18 416.421 6.18C416.741 6.18 416.971 6.29 417.111 6.51C417.271 6.73 417.351 6.94 417.351 7.14ZM419.571 6.18C419.891 6.18 420.121 6.29 420.261 6.51C420.421 6.73 420.501 6.98 420.501 7.26C420.501 7.54 420.071 8.23 419.211 9.33C418.011 10.73 417.301 11.43 417.081 11.43C417.001 11.43 416.961 11.37 416.961 11.25C416.961 11.11 417.191 10.81 417.651 10.35C418.371 9.49 418.821 8.72 419.001 8.04C419.161 7.72 419.181 7.43 419.061 7.17C418.941 6.89 418.891 6.66 418.911 6.48C419.051 6.28 419.271 6.18 419.571 6.18Z" fill="white"/>
</g>
<g filter="url(#filter1_d)">
<path d="M23.5 84.5C33.441 84.5 41.5 92.559 41.5 102.5C41.5 112.441 33.441 120.5 23.5 120.5C13.559 120.5 5.5 112.441 5.5 102.5C5.5 92.559 13.559 84.5 23.5 84.5Z" stroke="white" stroke-width="3"/>
<path fill-rule="evenodd" clip-rule="evenodd" d="M27.673 97.0256C27.673 96.3586 28.2139 95.8177 28.8815 95.8177C29.5485 95.8177 30.0882 96.3586 30.0882 97.0256C30.0882 97.6926 29.5485 98.2335 28.8815 98.2335C28.2139 98.2335 27.673 97.6926 27.673 97.0256ZM23.5089 105.752C21.6563 105.752 20.154 104.251 20.154 102.398C20.154 100.545 21.6563 99.0427 23.5089 99.0427C25.3614 99.0427 26.8637 100.545 26.8637 102.398C26.8637 104.251 25.3614 105.752 23.5089 105.752ZM18.3406 102.398C18.3406 99.5433 20.6546 97.2293 23.5089 97.2293C26.3632 97.2293 28.6772 99.5433 28.6772 102.398C28.6772 105.252 26.3632 107.566 23.5089 107.566C20.6546 107.566 18.3406 105.252 18.3406 102.398ZM23.5089 94.1471C26.1961 94.1471 26.5147 94.157 27.5767 94.2061C30.3037 94.3303 31.5781 95.6239 31.7023 98.3316C31.7507 99.3924 31.76 99.711 31.76 102.398C31.76 105.087 31.7501 105.404 31.7023 106.465C31.5768 109.17 30.3068 110.467 27.5767 110.591C26.5147 110.639 26.1974 110.649 23.5089 110.649C20.8217 110.649 20.5031 110.639 19.4417 110.591C16.7079 110.466 15.4404 109.166 15.3161 106.464C15.2677 105.403 15.2578 105.085 15.2578 102.398C15.2578 99.7103 15.2683 99.3924 15.3161 98.3304C15.4416 95.6239 16.7116 94.329 19.4417 94.2048C20.5037 94.157 20.8217 94.1471 23.5089 94.1471ZM23.5089 92.333C20.7757 92.333 20.4335 92.3448 19.3597 92.3932C15.7049 92.5609 13.6735 94.5892 13.5058 98.2478C13.4561 99.3222 13.4443 99.6644 13.4443 102.398C13.4443 105.131 13.4561 105.474 13.5046 106.547C13.6723 110.202 15.7006 112.234 19.3591 112.401C20.4335 112.45 20.7757 112.462 23.5089 112.462C26.2421 112.462 26.5849 112.45 27.6587 112.401C31.3104 112.234 33.3468 110.206 33.512 106.547C33.5616 105.474 33.5734 105.131 33.5734 102.398C33.5734 99.6644 33.5616 99.3222 33.5126 98.2484C33.3486 94.5967 31.3178 92.5622 27.6593 92.3945C26.5849 92.3448 26.2421 92.333 23.5089 92.333Z" fill="white"/>
<path d="M149.5 84.5C159.441 84.5 167.5 92.559 167.5 102.5C167.5 112.441 159.441 120.5 149.5 120.5C139.559 120.5 131.5 112.441 131.5 102.5C131.5 92.559 139.559 84.5 149.5 84.5Z" stroke="white" stroke-width="3"/>
<path fill-rule="evenodd" clip-rule="evenodd" d="M159.553 96.2137C158.813 96.5423 158.017 96.764 157.182 96.864C158.034 96.3529 158.69 95.5436 158.998 94.5792C158.2 95.0524 157.316 95.3958 156.375 95.5815C155.622 94.7785 154.548 94.2773 153.36 94.2773C150.694 94.2773 148.735 96.7646 149.337 99.3469C145.906 99.1755 142.863 97.5316 140.826 95.0331C139.744 96.8888 140.265 99.3171 142.103 100.547C141.427 100.524 140.79 100.339 140.234 100.03C140.189 101.943 141.56 103.733 143.546 104.131C142.965 104.288 142.328 104.326 141.681 104.202C142.206 105.842 143.731 107.035 145.538 107.069C143.803 108.43 141.615 109.038 139.424 108.78C141.252 109.952 143.423 110.636 145.755 110.636C153.423 110.636 157.754 104.159 157.493 98.3514C158.3 97.7688 159 97.0416 159.553 96.2137Z" fill="white"/>
<path d="M86.5 84.5C96.441 84.5 104.5 92.559 104.5 102.5C104.5 112.441 96.441 120.5 86.5 120.5C76.559 120.5 68.5 112.441 68.5 102.5C68.5 92.559 76.559 84.5 86.5 84.5Z" stroke="white" stroke-width="3"/>
<path fill-rule="evenodd" clip-rule="evenodd" d="M84.363 99.0427H81.8472V102.398H84.363V112.462H88.5563V102.398H91.6111L91.9111 99.0427H88.5563V97.6448C88.5563 96.8436 88.7177 96.5269 89.4915 96.5269H91.9111V92.333H88.7177C85.7013 92.333 84.363 93.6608 84.363 96.2039V99.0427Z" fill="white"/>
</g>
<g filter="url(#filter2_d)">
<path d="M240.703 110H237.256L235.322 102.5C235.251 102.233 235.127 101.683 234.951 100.85C234.782 100.01 234.684 99.4466 234.658 99.1602C234.619 99.5117 234.521 100.078 234.365 100.859C234.209 101.634 234.089 102.188 234.004 102.52L232.08 110H228.643L225 95.7227H227.979L229.805 103.516C230.124 104.954 230.355 106.201 230.498 107.256C230.537 106.885 230.625 106.312 230.762 105.537C230.905 104.756 231.038 104.15 231.162 103.721L233.242 95.7227H236.104L238.184 103.721C238.275 104.079 238.389 104.626 238.525 105.361C238.662 106.097 238.766 106.729 238.838 107.256C238.903 106.748 239.007 106.117 239.15 105.361C239.294 104.6 239.424 103.984 239.541 103.516L241.357 95.7227H244.336L240.703 110ZM255.977 110H252.998V103.623C252.998 102.048 252.412 101.26 251.24 101.26C250.407 101.26 249.805 101.543 249.434 102.109C249.062 102.676 248.877 103.594 248.877 104.863V110H245.898V94.8047H248.877V97.9004C248.877 98.1413 248.854 98.7077 248.809 99.5996L248.74 100.479H248.896C249.561 99.4108 250.615 98.877 252.061 98.877C253.343 98.877 254.316 99.222 254.98 99.9121C255.645 100.602 255.977 101.592 255.977 102.881V110ZM265.977 110L265.4 108.516H265.322C264.821 109.147 264.303 109.587 263.77 109.834C263.242 110.075 262.552 110.195 261.699 110.195C260.651 110.195 259.824 109.896 259.219 109.297C258.62 108.698 258.32 107.845 258.32 106.738C258.32 105.579 258.724 104.727 259.531 104.18C260.345 103.626 261.569 103.32 263.203 103.262L265.098 103.203V102.725C265.098 101.618 264.531 101.064 263.398 101.064C262.526 101.064 261.501 101.328 260.322 101.855L259.336 99.8438C260.592 99.1862 261.986 98.8574 263.516 98.8574C264.98 98.8574 266.104 99.1764 266.885 99.8145C267.666 100.452 268.057 101.423 268.057 102.725V110H265.977ZM265.098 104.941L263.945 104.98C263.079 105.007 262.435 105.163 262.012 105.449C261.589 105.736 261.377 106.172 261.377 106.758C261.377 107.598 261.859 108.018 262.822 108.018C263.512 108.018 264.062 107.819 264.473 107.422C264.889 107.025 265.098 106.497 265.098 105.84V104.941ZM275.732 107.822C276.253 107.822 276.878 107.708 277.607 107.48V109.697C276.865 110.029 275.954 110.195 274.873 110.195C273.682 110.195 272.812 109.896 272.266 109.297C271.725 108.691 271.455 107.786 271.455 106.582V101.318H270.029V100.059L271.67 99.0625L272.529 96.7578H274.434V99.082H277.49V101.318H274.434V106.582C274.434 107.005 274.551 107.318 274.785 107.52C275.026 107.721 275.342 107.822 275.732 107.822ZM287.441 106.758C287.441 107.878 287.051 108.73 286.27 109.316C285.495 109.902 284.333 110.195 282.783 110.195C281.989 110.195 281.312 110.14 280.752 110.029C280.192 109.925 279.668 109.769 279.18 109.561V107.1C279.733 107.36 280.355 107.578 281.045 107.754C281.742 107.93 282.354 108.018 282.881 108.018C283.962 108.018 284.502 107.705 284.502 107.08C284.502 106.846 284.43 106.657 284.287 106.514C284.144 106.364 283.896 106.198 283.545 106.016C283.193 105.827 282.725 105.609 282.139 105.361C281.299 105.01 280.68 104.684 280.283 104.385C279.893 104.085 279.606 103.743 279.424 103.359C279.248 102.969 279.16 102.49 279.16 101.924C279.16 100.954 279.535 100.205 280.283 99.6777C281.038 99.1439 282.106 98.877 283.486 98.877C284.801 98.877 286.081 99.1634 287.324 99.7363L286.426 101.885C285.879 101.65 285.368 101.458 284.893 101.309C284.417 101.159 283.932 101.084 283.438 101.084C282.559 101.084 282.119 101.322 282.119 101.797C282.119 102.064 282.259 102.295 282.539 102.49C282.826 102.686 283.447 102.975 284.404 103.359C285.257 103.704 285.882 104.027 286.279 104.326C286.676 104.626 286.969 104.971 287.158 105.361C287.347 105.752 287.441 106.217 287.441 106.758ZM298.74 110L297.705 106.602H292.5L291.465 110H288.203L293.242 95.6641H296.943L302.002 110H298.74ZM296.982 104.062C296.025 100.983 295.485 99.2415 295.361 98.8379C295.244 98.4342 295.16 98.1152 295.107 97.8809C294.893 98.7142 294.277 100.775 293.262 104.062H296.982ZM309.57 110.195C308.288 110.195 307.282 109.73 306.553 108.799H306.396C306.501 109.71 306.553 110.238 306.553 110.381V114.805H303.574V99.082H305.996L306.416 100.498H306.553C307.249 99.4173 308.281 98.877 309.648 98.877C310.938 98.877 311.947 99.375 312.676 100.371C313.405 101.367 313.77 102.751 313.77 104.521C313.77 105.687 313.597 106.699 313.252 107.559C312.913 108.418 312.428 109.072 311.797 109.521C311.165 109.971 310.423 110.195 309.57 110.195ZM308.691 101.26C307.956 101.26 307.419 101.488 307.08 101.943C306.742 102.393 306.566 103.138 306.553 104.18V104.502C306.553 105.674 306.725 106.514 307.07 107.021C307.422 107.529 307.975 107.783 308.73 107.783C310.065 107.783 310.732 106.683 310.732 104.482C310.732 103.408 310.566 102.604 310.234 102.07C309.909 101.53 309.395 101.26 308.691 101.26ZM322.227 110.195C320.944 110.195 319.938 109.73 319.209 108.799H319.053C319.157 109.71 319.209 110.238 319.209 110.381V114.805H316.23V99.082H318.652L319.072 100.498H319.209C319.906 99.4173 320.938 98.877 322.305 98.877C323.594 98.877 324.603 99.375 325.332 100.371C326.061 101.367 326.426 102.751 326.426 104.521C326.426 105.687 326.253 106.699 325.908 107.559C325.57 108.418 325.085 109.072 324.453 109.521C323.822 109.971 323.079 110.195 322.227 110.195ZM321.348 101.26C320.612 101.26 320.075 101.488 319.736 101.943C319.398 102.393 319.222 103.138 319.209 104.18V104.502C319.209 105.674 319.382 106.514 319.727 107.021C320.078 107.529 320.632 107.783 321.387 107.783C322.721 107.783 323.389 106.683 323.389 104.482C323.389 103.408 323.223 102.604 322.891 102.07C322.565 101.53 322.051 101.26 321.348 101.26ZM328.467 108.604C328.467 108.057 328.613 107.643 328.906 107.363C329.199 107.083 329.626 106.943 330.186 106.943C330.726 106.943 331.143 107.087 331.436 107.373C331.735 107.66 331.885 108.07 331.885 108.604C331.885 109.118 331.735 109.525 331.436 109.824C331.136 110.117 330.719 110.264 330.186 110.264C329.639 110.264 329.215 110.12 328.916 109.834C328.617 109.541 328.467 109.131 328.467 108.604ZM328.467 100.537C328.467 99.9902 328.613 99.5768 328.906 99.2969C329.199 99.0169 329.626 98.877 330.186 98.877C330.726 98.877 331.143 99.0202 331.436 99.3066C331.735 99.5931 331.885 100.003 331.885 100.537C331.885 101.064 331.732 101.475 331.426 101.768C331.126 102.054 330.713 102.197 330.186 102.197C329.639 102.197 329.215 102.054 328.916 101.768C328.617 101.481 328.467 101.071 328.467 100.537ZM348.525 102.822C348.525 105.329 348.141 107.184 347.373 108.389C346.611 109.593 345.456 110.195 343.906 110.195C342.415 110.195 341.283 109.577 340.508 108.34C339.733 107.096 339.346 105.257 339.346 102.822C339.346 100.335 339.72 98.4928 340.469 97.2949C341.224 96.097 342.37 95.498 343.906 95.498C345.41 95.498 346.556 96.1198 347.344 97.3633C348.132 98.6003 348.525 100.42 348.525 102.822ZM340.4 102.822C340.4 105.036 340.69 106.673 341.27 107.734C341.849 108.789 342.728 109.316 343.906 109.316C345.137 109.316 346.032 108.77 346.592 107.676C347.158 106.582 347.441 104.964 347.441 102.822C347.441 100.713 347.158 99.1113 346.592 98.0176C346.032 96.9238 345.137 96.377 343.906 96.377C342.676 96.377 341.784 96.9238 341.23 98.0176C340.677 99.1113 340.4 100.713 340.4 102.822ZM350.928 103.916C350.928 102.061 351.178 100.501 351.68 99.2383C352.188 97.9688 352.904 97.028 353.828 96.416C354.759 95.804 355.879 95.498 357.188 95.498C357.799 95.498 358.359 95.5729 358.867 95.7227V96.582C358.392 96.4062 357.819 96.3184 357.148 96.3184C355.54 96.3184 354.287 96.8978 353.389 98.0566C352.497 99.2155 351.995 100.902 351.885 103.115H352.012C352.507 102.477 353.073 101.995 353.711 101.67C354.349 101.344 355.023 101.182 355.732 101.182C357.067 101.182 358.109 101.562 358.857 102.324C359.613 103.086 359.99 104.137 359.99 105.479C359.99 106.937 359.593 108.089 358.799 108.936C358.011 109.775 356.947 110.195 355.605 110.195C354.16 110.195 353.018 109.645 352.178 108.545C351.344 107.438 350.928 105.895 350.928 103.916ZM355.605 109.336C356.673 109.336 357.503 109.001 358.096 108.33C358.688 107.66 358.984 106.702 358.984 105.459C358.984 104.365 358.691 103.512 358.105 102.9C357.52 102.288 356.722 101.982 355.713 101.982C355.049 101.982 354.43 102.129 353.857 102.422C353.291 102.715 352.839 103.105 352.5 103.594C352.161 104.076 351.992 104.57 351.992 105.078C351.992 105.801 352.152 106.497 352.471 107.168C352.796 107.832 353.232 108.359 353.779 108.75C354.333 109.141 354.941 109.336 355.605 109.336ZM366.318 101.416C367.842 101.416 369.04 101.784 369.912 102.52C370.791 103.255 371.23 104.268 371.23 105.557C371.23 107.021 370.775 108.161 369.863 108.975C368.952 109.788 367.695 110.195 366.094 110.195C365.384 110.195 364.71 110.127 364.072 109.99C363.434 109.847 362.9 109.645 362.471 109.385V108.379C363.174 108.737 363.799 108.988 364.346 109.131C364.893 109.268 365.475 109.336 366.094 109.336C367.344 109.336 368.346 109.007 369.102 108.35C369.857 107.686 370.234 106.79 370.234 105.664C370.234 104.603 369.867 103.77 369.131 103.164C368.395 102.559 367.396 102.256 366.133 102.256C365.286 102.256 364.401 102.383 363.477 102.637L362.891 102.256L363.457 95.7227H370.332V96.6602H364.375L363.936 101.699C364.951 101.51 365.745 101.416 366.318 101.416ZM387.812 101.777C387.812 103.652 387.565 105.221 387.07 106.484C386.582 107.747 385.866 108.682 384.922 109.287C383.984 109.893 382.848 110.195 381.514 110.195C380.837 110.195 380.212 110.111 379.639 109.941V109.102C379.919 109.193 380.254 109.264 380.645 109.316C381.042 109.362 381.344 109.385 381.553 109.385C383.161 109.385 384.421 108.805 385.332 107.646C386.243 106.481 386.751 104.785 386.855 102.559H386.738C386.263 103.184 385.697 103.665 385.039 104.004C384.382 104.336 383.695 104.502 382.979 104.502C381.657 104.502 380.625 104.137 379.883 103.408C379.147 102.679 378.779 101.644 378.779 100.303C378.779 98.8704 379.183 97.7116 379.99 96.8262C380.804 95.9408 381.859 95.498 383.154 95.498C384.092 95.498 384.912 95.7454 385.615 96.2402C386.318 96.7285 386.859 97.4479 387.236 98.3984C387.62 99.349 387.812 100.475 387.812 101.777ZM383.154 96.3574C382.126 96.3574 381.305 96.7057 380.693 97.4023C380.081 98.0924 379.775 99.0397 379.775 100.244C379.775 101.377 380.059 102.236 380.625 102.822C381.191 103.408 382.002 103.701 383.057 103.701C383.714 103.701 384.326 103.555 384.893 103.262C385.465 102.969 385.918 102.581 386.25 102.1C386.589 101.611 386.758 101.117 386.758 100.615C386.758 99.8535 386.605 99.1406 386.299 98.4766C385.999 97.8125 385.576 97.2949 385.029 96.9238C384.489 96.5462 383.864 96.3574 383.154 96.3574ZM390.4 103.916C390.4 102.061 390.651 100.501 391.152 99.2383C391.66 97.9688 392.376 97.028 393.301 96.416C394.232 95.804 395.352 95.498 396.66 95.498C397.272 95.498 397.832 95.5729 398.34 95.7227V96.582C397.865 96.4062 397.292 96.3184 396.621 96.3184C395.013 96.3184 393.76 96.8978 392.861 98.0566C391.969 99.2155 391.468 100.902 391.357 103.115H391.484C391.979 102.477 392.546 101.995 393.184 101.67C393.822 101.344 394.495 101.182 395.205 101.182C396.54 101.182 397.581 101.562 398.33 102.324C399.085 103.086 399.463 104.137 399.463 105.479C399.463 106.937 399.066 108.089 398.271 108.936C397.484 109.775 396.419 110.195 395.078 110.195C393.633 110.195 392.49 109.645 391.65 108.545C390.817 107.438 390.4 105.895 390.4 103.916ZM395.078 109.336C396.146 109.336 396.976 109.001 397.568 108.33C398.161 107.66 398.457 106.702 398.457 105.459C398.457 104.365 398.164 103.512 397.578 102.9C396.992 102.288 396.195 101.982 395.186 101.982C394.521 101.982 393.903 102.129 393.33 102.422C392.764 102.715 392.311 103.105 391.973 103.594C391.634 104.076 391.465 104.57 391.465 105.078C391.465 105.801 391.624 106.497 391.943 107.168C392.269 107.832 392.705 108.359 393.252 108.75C393.805 109.141 394.414 109.336 395.078 109.336ZM410.664 101.777C410.664 103.652 410.417 105.221 409.922 106.484C409.434 107.747 408.717 108.682 407.773 109.287C406.836 109.893 405.7 110.195 404.365 110.195C403.688 110.195 403.063 110.111 402.49 109.941V109.102C402.77 109.193 403.105 109.264 403.496 109.316C403.893 109.362 404.196 109.385 404.404 109.385C406.012 109.385 407.272 108.805 408.184 107.646C409.095 106.481 409.603 104.785 409.707 102.559H409.59C409.115 103.184 408.548 103.665 407.891 104.004C407.233 104.336 406.546 104.502 405.83 104.502C404.508 104.502 403.477 104.137 402.734 103.408C401.999 102.679 401.631 101.644 401.631 100.303C401.631 98.8704 402.035 97.7116 402.842 96.8262C403.656 95.9408 404.71 95.498 406.006 95.498C406.943 95.498 407.764 95.7454 408.467 96.2402C409.17 96.7285 409.71 97.4479 410.088 98.3984C410.472 99.349 410.664 100.475 410.664 101.777ZM406.006 96.3574C404.977 96.3574 404.157 96.7057 403.545 97.4023C402.933 98.0924 402.627 99.0397 402.627 100.244C402.627 101.377 402.91 102.236 403.477 102.822C404.043 103.408 404.854 103.701 405.908 103.701C406.566 103.701 407.178 103.555 407.744 103.262C408.317 102.969 408.77 102.581 409.102 102.1C409.44 101.611 409.609 101.117 409.609 100.615C409.609 99.8535 409.456 99.1406 409.15 98.4766C408.851 97.8125 408.428 97.2949 407.881 96.9238C407.34 96.5462 406.715 96.3574 406.006 96.3574ZM426.729 99.082C426.729 99.9674 426.449 100.713 425.889 101.318C425.335 101.924 424.59 102.311 423.652 102.48V102.539C424.798 102.682 425.671 103.047 426.27 103.633C426.868 104.219 427.168 105.007 427.168 105.996C427.168 107.331 426.712 108.366 425.801 109.102C424.896 109.831 423.59 110.195 421.885 110.195C420.433 110.195 419.167 109.925 418.086 109.385V108.418C418.633 108.704 419.245 108.929 419.922 109.092C420.605 109.255 421.247 109.336 421.846 109.336C423.285 109.336 424.365 109.046 425.088 108.467C425.811 107.881 426.172 107.057 426.172 105.996C426.172 105.052 425.801 104.326 425.059 103.818C424.323 103.311 423.239 103.057 421.807 103.057H420.264V102.119H421.826C423.011 102.119 423.949 101.839 424.639 101.279C425.335 100.713 425.684 99.9479 425.684 98.9844C425.684 98.1901 425.4 97.5553 424.834 97.0801C424.274 96.5983 423.538 96.3574 422.627 96.3574C421.917 96.3574 421.27 96.4583 420.684 96.6602C420.098 96.8555 419.44 97.194 418.711 97.6758L418.232 97.0215C418.786 96.5592 419.453 96.1947 420.234 95.9277C421.016 95.6543 421.807 95.5176 422.607 95.5176C423.923 95.5176 424.938 95.8301 425.654 96.4551C426.37 97.0736 426.729 97.9492 426.729 99.082ZM429.873 103.916C429.873 102.061 430.124 100.501 430.625 99.2383C431.133 97.9688 431.849 97.028 432.773 96.416C433.704 95.804 434.824 95.498 436.133 95.498C436.745 95.498 437.305 95.5729 437.812 95.7227V96.582C437.337 96.4062 436.764 96.3184 436.094 96.3184C434.486 96.3184 433.232 96.8978 432.334 98.0566C431.442 99.2155 430.941 100.902 430.83 103.115H430.957C431.452 102.477 432.018 101.995 432.656 101.67C433.294 101.344 433.968 101.182 434.678 101.182C436.012 101.182 437.054 101.562 437.803 102.324C438.558 103.086 438.936 104.137 438.936 105.479C438.936 106.937 438.538 108.089 437.744 108.936C436.956 109.775 435.892 110.195 434.551 110.195C433.105 110.195 431.963 109.645 431.123 108.545C430.29 107.438 429.873 105.895 429.873 103.916ZM434.551 109.336C435.618 109.336 436.449 109.001 437.041 108.33C437.633 107.66 437.93 106.702 437.93 105.459C437.93 104.365 437.637 103.512 437.051 102.9C436.465 102.288 435.667 101.982 434.658 101.982C433.994 101.982 433.376 102.129 432.803 102.422C432.236 102.715 431.784 103.105 431.445 103.594C431.107 104.076 430.938 104.57 430.938 105.078C430.938 105.801 431.097 106.497 431.416 107.168C431.742 107.832 432.178 108.359 432.725 108.75C433.278 109.141 433.887 109.336 434.551 109.336ZM450.322 102.822C450.322 105.329 449.938 107.184 449.17 108.389C448.408 109.593 447.253 110.195 445.703 110.195C444.212 110.195 443.079 109.577 442.305 108.34C441.53 107.096 441.143 105.257 441.143 102.822C441.143 100.335 441.517 98.4928 442.266 97.2949C443.021 96.097 444.167 95.498 445.703 95.498C447.207 95.498 448.353 96.1198 449.141 97.3633C449.928 98.6003 450.322 100.42 450.322 102.822ZM442.197 102.822C442.197 105.036 442.487 106.673 443.066 107.734C443.646 108.789 444.525 109.316 445.703 109.316C446.934 109.316 447.829 108.77 448.389 107.676C448.955 106.582 449.238 104.964 449.238 102.822C449.238 100.713 448.955 99.1113 448.389 98.0176C447.829 96.9238 446.934 96.377 445.703 96.377C444.473 96.377 443.581 96.9238 443.027 98.0176C442.474 99.1113 442.197 100.713 442.197 102.822ZM454.707 110L460.586 96.6602H452.51V95.7227H461.748V96.4355L455.85 110H454.707Z" fill="white"/>
</g>
<line x1="197.5" y1="62" x2="197.5" y2="143" stroke="white"/>
<defs>
<filter id="filter0_d" x="42.7202" y="6.09009" width="381.781" height="48.34" filterUnits="userSpaceOnUse" color-interpolation-filters="sRGB">
<feFlood flood-opacity="0" result="BackgroundImageFix"/>
<feColorMatrix in="SourceAlpha" type="matrix" values="0 0 0 0 0 0 0 0 0 0 0 0 0 0 0 0 0 0 127 0" result="hardAlpha"/>
<feOffset dy="15"/>
<feGaussianBlur stdDeviation="2"/>
<feComposite in2="hardAlpha" operator="out"/>
<feColorMatrix type="matrix" values="0 0 0 0 0 0 0 0 0 0 0 0 0 0 0 0 0 0 0.15 0"/>
<feBlend mode="normal" in2="BackgroundImageFix" result="effect1_dropShadow"/>
<feBlend mode="normal" in="SourceGraphic" in2="effect1_dropShadow" result="shape"/>
</filter>
<filter id="filter1_d" x="0" y="83" width="173" height="58" filterUnits="userSpaceOnUse" color-interpolation-filters="sRGB">
<feFlood flood-opacity="0" result="BackgroundImageFix"/>
<feColorMatrix in="SourceAlpha" type="matrix" values="0 0 0 0 0 0 0 0 0 0 0 0 0 0 0 0 0 0 127 0" result="hardAlpha"/>
<feOffset dy="15"/>
<feGaussianBlur stdDeviation="2"/>
<feComposite in2="hardAlpha" operator="out"/>
<feColorMatrix type="matrix" values="0 0 0 0 0 0 0 0 0 0 0 0 0 0 0 0 0 0 0.15 0"/>
<feBlend mode="normal" in2="BackgroundImageFix" result="effect1_dropShadow"/>
<feBlend mode="normal" in="SourceGraphic" in2="effect1_dropShadow" result="shape"/>
</filter>
<filter id="filter2_d" x="221" y="94.8047" width="244.748" height="34" filterUnits="userSpaceOnUse" color-interpolation-filters="sRGB">
<feFlood flood-opacity="0" result="BackgroundImageFix"/>
<feColorMatrix in="SourceAlpha" type="matrix" values="0 0 0 0 0 0 0 0 0 0 0 0 0 0 0 0 0 0 127 0" result="hardAlpha"/>
<feOffset dy="10"/>
<feGaussianBlur stdDeviation="2"/>
<feComposite in2="hardAlpha" operator="out"/>
<feColorMatrix type="matrix" values="0 0 0 0 0 0 0 0 0 0 0 0 0 0 0 0 0 0 0.15 0"/>
<feBlend mode="normal" in2="BackgroundImageFix" result="effect1_dropShadow"/>
<feBlend mode="normal" in="SourceGraphic" in2="effect1_dropShadow" result="shape"/>
</filter>
</defs>
</svg>
