<svg width="226" height="223" viewBox="0 0 226 223" fill="none" xmlns="http://www.w3.org/2000/svg">
<g filter="url(#filter0_d)">
<path d="M15.5781 206.301H10.4922L11.5703 203.219H14.3828L10.2227 192.449H15.2734L21.4727 208H16.2344L15.5781 206.301ZM9.10938 208H4.10547L9.66016 193.152L11.957 199.328L9.10938 208ZM22.9492 208V192.449H28.1289V208H22.9492ZM28.9492 195.555V192.449H34.8672L37.9844 195.555V200.219L35.5938 202.609L35.4297 202.281L30.5664 202.926L30.7539 203.336H28.9492V200.324H32.8398V195.555H28.9492ZM38.5117 208H32.9805L30.7539 203.336H34.8672L35.5938 202.609L38.5117 208Z" fill="#C53242"/>
<path d="M52.5742 208V204.895H56.418V195.555H52.5742V192.449H58.4922L61.6094 195.555V204.895L58.4922 208H52.5742ZM46.5742 192.449H51.7539V208H46.5742V192.449ZM68.9102 208H66.8359L63.7305 204.895V198.66L66.8359 195.555H68.9102V208ZM69.7305 203.008V200.84H72.4609V198.66H69.7305V195.555H74.125L77.2305 198.66V203.008H69.7305ZM69.7305 208V205.094H76.6914V206.441L75.1445 208H69.7305ZM82.1523 195.555H84.2266V199.949H90.1328L92.8281 202.668V205.094L89.9336 208H87.6484V203.301H82.0469L79.3516 200.711V198.344L82.1523 195.555ZM84.5312 205.715H86.8281V208L81.4961 207.988L79.3398 205.434V204.438H84.5312V205.715ZM87.6484 197.84H85.0469V195.555H90.5547L92.4062 197.406V198.812H87.6484V197.84ZM94.8789 195.555H100.07V208H94.8789V195.555ZM94.8789 190.703H100.07V194.008H94.8789V190.703ZM110.723 198.66H108.426V195.555H112.797L115.902 198.66V209.23L112.797 212.359H105.965L104.406 210.789V209.641H110.723V198.66ZM109.902 205.094V206.465L108.355 208H105.531L102.426 204.895V198.66L105.531 195.555H107.605V205.094H109.902ZM118.234 208V195.555H123.461V208H118.234ZM126.531 198.66H124.305V197.301L126.039 195.555H128.922L131.723 198.355V208H126.531V198.66ZM150.098 208V202.176H143.371L140.254 199.059V195.555L143.371 192.449H145.129V197.969H152.277L155.289 201.086V204.895L152.184 208H150.098ZM145.949 195.25V192.449H152.172L154.867 195.156V196.809H150.098V195.25H145.949ZM140.254 203.336H145.434V205.188H149.277V208H142.867L140.254 204.895V203.336ZM162.977 204.895H166.398V208H160.914L157.797 204.895V198.66H156.766V195.555H157.797V194.207L162.977 192.449V204.895ZM163.797 198.66V195.555H166.586V198.66H163.797ZM181.773 195.555V208H176.594V195.555H181.773ZM173.465 204.895H175.773V206.441L174.273 208H171.402L168.285 204.895V195.555H173.465V204.895ZM197.781 190.809V208H192.602V190.809H197.781ZM189.285 205.094H191.781V206.77L190.551 208H186.906L184.105 205.199V198.355L186.906 195.555H191.781V198.66H189.285V205.094ZM200.23 195.555H205.422V208H200.23V195.555ZM200.23 190.703H205.422V194.008H200.23V190.703ZM221.758 204.895L218.652 208H215.184V205.094H216.473V198.66H215.184V195.555H218.652L221.758 198.66V204.895ZM213.016 205.094H214.363V208H210.883L207.777 204.895V198.66L210.883 195.555H214.363V198.66H213.016V205.094Z" fill="white"/>
</g>
<g filter="url(#filter1_d)">
<rect x="68" y="55" width="86" height="9" rx="4.5" fill="#19345F" stroke="white" stroke-width="4"/>
<path d="M67.1825 63L37 93.1456L110.779 178L184 93.1456L154.376 63H67.1825Z" fill="white"/>
<mask id="path-4-inside-1" fill="white">
<path fill-rule="evenodd" clip-rule="evenodd" d="M151.833 63.9008V63.8252L69.8382 63.8252V63.8927L43.3984 90.1502L43.3967 90.1482L40 93.4379L107.451 171.905L107.439 171.918L110.593 175.574L181.999 93.8193L178.76 90.513L178.699 90.5823L151.833 63.9008ZM175.616 94.1015L149.793 68.456L71.8702 68.456L46.4487 93.7021L110.559 168.357L175.616 94.1015Z"/>
</mask>
<path fill-rule="evenodd" clip-rule="evenodd" d="M151.833 63.9008V63.8252L69.8382 63.8252V63.8927L43.3984 90.1502L43.3967 90.1482L40 93.4379L107.451 171.905L107.439 171.918L110.593 175.574L181.999 93.8193L178.76 90.513L178.699 90.5823L151.833 63.9008ZM175.616 94.1015L149.793 68.456L71.8702 68.456L46.4487 93.7021L110.559 168.357L175.616 94.1015Z" fill="#19345F"/>
<path d="M151.833 63.8252H152.833V62.8252L151.833 62.8252L151.833 63.8252ZM151.833 63.9008H150.833V64.3171L151.128 64.6104L151.833 63.9008ZM69.8382 63.8252L69.8382 62.8252L68.8382 62.8252V63.8252H69.8382ZM69.8382 63.8927L70.5428 64.6023L70.8382 64.309V63.8927H69.8382ZM43.3984 90.1502L42.6397 90.8016L43.3402 91.6173L44.103 90.8597L43.3984 90.1502ZM43.3967 90.1482L44.1554 89.4967L43.4637 88.6913L42.701 89.4299L43.3967 90.1482ZM40 93.4379L39.3043 92.7195L38.6274 93.3751L39.2417 94.0897L40 93.4379ZM107.451 171.905L108.203 172.564L108.775 171.911L108.209 171.253L107.451 171.905ZM107.439 171.918L106.687 171.259L106.114 171.913L106.682 172.571L107.439 171.918ZM110.593 175.574L109.836 176.227L110.588 177.099L111.346 176.232L110.593 175.574ZM181.999 93.8193L182.752 94.4771L183.361 93.7803L182.714 93.1194L181.999 93.8193ZM178.76 90.513L179.474 89.8132L178.719 89.0423L178.008 89.854L178.76 90.513ZM178.699 90.5823L177.995 91.2918L178.75 92.0419L179.452 91.2413L178.699 90.5823ZM175.616 94.1015L176.368 94.7605L176.987 94.0539L176.321 93.392L175.616 94.1015ZM149.793 68.456L150.497 67.7465L150.205 67.456L149.793 67.456L149.793 68.456ZM71.8702 68.456L71.8702 67.456L71.458 67.456L71.1655 67.7465L71.8702 68.456ZM46.4487 93.7021L45.7441 92.9926L45.0841 93.648L45.6901 94.3536L46.4487 93.7021ZM110.559 168.357L109.801 169.008L110.552 169.883L111.311 169.016L110.559 168.357ZM150.833 63.8252V63.9008H152.833V63.8252H150.833ZM69.8382 64.8252L151.833 64.8252L151.833 62.8252L69.8382 62.8252L69.8382 64.8252ZM70.8382 63.8927V63.8252H68.8382V63.8927H70.8382ZM44.103 90.8597L70.5428 64.6023L69.1335 63.1832L42.6937 89.4406L44.103 90.8597ZM42.6381 90.7997L42.6397 90.8016L44.157 89.4987L44.1554 89.4967L42.6381 90.7997ZM40.6957 94.1562L44.0924 90.8666L42.701 89.4299L39.3043 92.7195L40.6957 94.1562ZM108.209 171.253L40.7583 92.786L39.2417 94.0897L106.692 172.557L108.209 171.253ZM106.698 171.246L106.687 171.259L108.191 172.577L108.203 172.564L106.698 171.246ZM106.682 172.571L109.836 176.227L111.35 174.921L108.196 171.265L106.682 172.571ZM111.346 176.232L182.752 94.4771L181.246 93.1614L109.84 174.916L111.346 176.232ZM182.714 93.1194L179.474 89.8132L178.046 91.2128L181.285 94.5191L182.714 93.1194ZM178.008 89.854L177.947 89.9232L179.452 91.2413L179.512 91.172L178.008 89.854ZM151.128 64.6104L177.995 91.2918L179.404 89.8727L152.537 63.1913L151.128 64.6104ZM176.321 93.392L150.497 67.7465L149.088 69.1656L174.911 94.8111L176.321 93.392ZM149.793 67.456L71.8702 67.456L71.8702 69.456L149.793 69.456L149.793 67.456ZM71.1655 67.7465L45.7441 92.9926L47.1534 94.4117L72.5748 69.1656L71.1655 67.7465ZM45.6901 94.3536L109.801 169.008L111.318 167.705L47.2074 93.0506L45.6901 94.3536ZM174.864 93.4425L109.807 167.698L111.311 169.016L176.368 94.7605L174.864 93.4425Z" fill="white" mask="url(#path-4-inside-1)"/>
<mask id="path-6-outside-2" maskUnits="userSpaceOnUse" x="46" y="0.046875" width="130" height="57" fill="black">
<rect fill="white" x="46" y="0.046875" width="130" height="57"/>
<path fill-rule="evenodd" clip-rule="evenodd" d="M111.888 13.2625C113.994 12.5362 115.502 10.5917 115.502 8.30703C115.502 5.40193 113.065 3.04688 110.058 3.04688C107.052 3.04688 104.615 5.40193 104.615 8.30703C104.615 10.7993 106.409 12.8867 108.817 13.4297C107.449 21.4423 104.353 32.4646 97.8737 33.8074C90.9407 35.2443 84.6482 33.0412 79.0881 22.9775C80.3652 22.0149 81.1865 20.5138 81.1865 18.8274C81.1865 15.9223 78.7495 13.5672 75.7432 13.5672C72.737 13.5672 70.3 15.9223 70.3 18.8274C70.3 21.7325 72.737 24.0875 75.7432 24.0875C75.9239 24.0875 76.1026 24.079 76.2787 24.0624C77.0139 29.5934 76.5362 36.3493 71.7587 39.2962C70.0143 40.2243 65.1044 40.0365 58.4117 32.9475C59.3263 32.0065 59.8865 30.7401 59.8865 29.3473C59.8865 26.4422 57.4495 24.0871 54.4432 24.0871C51.437 24.0871 49 26.4422 49 29.3473C49 32.2524 51.437 34.6074 54.4432 34.6074C55.2164 34.6074 55.952 34.4516 56.6181 34.1708C61.1626 39.479 67.3703 47.3772 70.3078 53.3614H151.917C153.878 49.3592 158.888 40.7404 165.005 34.2061C165.648 34.4647 166.354 34.6074 167.094 34.6074C170.1 34.6074 172.537 32.2524 172.537 29.3473C172.537 26.4422 170.1 24.0871 167.094 24.0871C164.088 24.0871 161.651 26.4422 161.651 29.3473C161.651 30.6925 162.173 31.9198 163.033 32.8499C160.111 35.6478 156.649 38.5245 154.819 39.2962C152.159 40.418 142.487 41.6976 144.663 29.3477C144.498 29.3477 145.11 26.894 145.869 24.0852C145.923 24.0868 145.978 24.0875 146.032 24.0875C149.038 24.0875 151.475 21.7325 151.475 18.8274C151.475 15.9223 149.038 13.5672 146.032 13.5672C143.026 13.5672 140.589 15.9223 140.589 18.8274C140.589 20.2819 141.2 21.5986 142.187 22.5508C138.847 27.874 134.266 33.9226 127.447 34.2395C127.321 34.2395 127.19 34.242 127.054 34.2446C124.296 34.297 119.571 34.3869 112.019 14.2533L111.888 13.2625Z"/>
</mask>
<path fill-rule="evenodd" clip-rule="evenodd" d="M111.888 13.2625C113.994 12.5362 115.502 10.5917 115.502 8.30703C115.502 5.40193 113.065 3.04688 110.058 3.04688C107.052 3.04688 104.615 5.40193 104.615 8.30703C104.615 10.7993 106.409 12.8867 108.817 13.4297C107.449 21.4423 104.353 32.4646 97.8737 33.8074C90.9407 35.2443 84.6482 33.0412 79.0881 22.9775C80.3652 22.0149 81.1865 20.5138 81.1865 18.8274C81.1865 15.9223 78.7495 13.5672 75.7432 13.5672C72.737 13.5672 70.3 15.9223 70.3 18.8274C70.3 21.7325 72.737 24.0875 75.7432 24.0875C75.9239 24.0875 76.1026 24.079 76.2787 24.0624C77.0139 29.5934 76.5362 36.3493 71.7587 39.2962C70.0143 40.2243 65.1044 40.0365 58.4117 32.9475C59.3263 32.0065 59.8865 30.7401 59.8865 29.3473C59.8865 26.4422 57.4495 24.0871 54.4432 24.0871C51.437 24.0871 49 26.4422 49 29.3473C49 32.2524 51.437 34.6074 54.4432 34.6074C55.2164 34.6074 55.952 34.4516 56.6181 34.1708C61.1626 39.479 67.3703 47.3772 70.3078 53.3614H151.917C153.878 49.3592 158.888 40.7404 165.005 34.2061C165.648 34.4647 166.354 34.6074 167.094 34.6074C170.1 34.6074 172.537 32.2524 172.537 29.3473C172.537 26.4422 170.1 24.0871 167.094 24.0871C164.088 24.0871 161.651 26.4422 161.651 29.3473C161.651 30.6925 162.173 31.9198 163.033 32.8499C160.111 35.6478 156.649 38.5245 154.819 39.2962C152.159 40.418 142.487 41.6976 144.663 29.3477C144.498 29.3477 145.11 26.894 145.869 24.0852C145.923 24.0868 145.978 24.0875 146.032 24.0875C149.038 24.0875 151.475 21.7325 151.475 18.8274C151.475 15.9223 149.038 13.5672 146.032 13.5672C143.026 13.5672 140.589 15.9223 140.589 18.8274C140.589 20.2819 141.2 21.5986 142.187 22.5508C138.847 27.874 134.266 33.9226 127.447 34.2395C127.321 34.2395 127.19 34.242 127.054 34.2446C124.296 34.297 119.571 34.3869 112.019 14.2533L111.888 13.2625Z" fill="#19345F"/>
<path d="M111.888 13.2625L110.91 10.4265L108.593 11.2256L108.914 13.6556L111.888 13.2625ZM108.817 13.4297L111.774 13.9346L112.253 11.1292L109.476 10.5032L108.817 13.4297ZM97.8737 33.8074L98.4825 36.745L98.4825 36.745L97.8737 33.8074ZM79.0881 22.9775L77.2824 20.5818L75.203 22.1491L76.4622 24.4283L79.0881 22.9775ZM76.2787 24.0624L79.2526 23.6671L78.872 20.8044L75.9969 21.0757L76.2787 24.0624ZM71.7587 39.2962L73.1677 41.9448L73.2522 41.8998L73.3337 41.8496L71.7587 39.2962ZM58.4117 32.9475L56.2604 30.8567L54.2576 32.9175L56.2303 35.007L58.4117 32.9475ZM56.6181 34.1708L58.897 32.2197L57.4718 30.555L55.4525 31.4064L56.6181 34.1708ZM70.3078 53.3614L67.6148 54.6834L68.4385 56.3614H70.3078V53.3614ZM151.917 53.3614V56.3614H153.788L154.611 54.6814L151.917 53.3614ZM165.005 34.2061L166.124 31.4226L164.218 30.6566L162.815 32.1558L165.005 34.2061ZM163.033 32.8499L165.108 35.0165L167.236 32.978L165.236 30.8137L163.033 32.8499ZM154.819 39.2962L155.984 42.0605L155.984 42.0605L154.819 39.2962ZM144.663 29.3477L147.617 29.8683L148.238 26.3477H144.663V29.3477ZM145.869 24.0852L145.954 21.0864L143.59 21.0195L142.973 23.3026L145.869 24.0852ZM142.187 22.5508L144.728 24.1454L146.023 22.0822L144.27 20.3913L142.187 22.5508ZM127.447 34.2395V37.2395H127.516L127.586 37.2363L127.447 34.2395ZM127.054 34.2446L126.997 31.2451L126.997 31.2451L127.054 34.2446ZM112.019 14.2533L109.045 14.6464L109.09 14.9861L109.21 15.3069L112.019 14.2533ZM112.502 8.30703C112.502 9.21934 111.896 10.0864 110.91 10.4265L112.866 16.0986C116.093 14.9859 118.502 11.9641 118.502 8.30703H112.502ZM110.058 6.04688C111.505 6.04688 112.502 7.1547 112.502 8.30703H118.502C118.502 3.64915 114.624 0.046875 110.058 0.046875V6.04688ZM107.615 8.30703C107.615 7.1547 108.611 6.04688 110.058 6.04688V0.046875C105.493 0.046875 101.615 3.64915 101.615 8.30703H107.615ZM109.476 10.5032C108.34 10.2469 107.615 9.29986 107.615 8.30703H101.615C101.615 12.2987 104.477 15.5266 108.157 16.3562L109.476 10.5032ZM98.4825 36.745C103.247 35.7576 106.182 31.412 108 27.3442C109.905 23.0833 111.073 18.0396 111.774 13.9346L105.859 12.9248C105.192 16.8323 104.128 21.3061 102.523 24.8952C100.832 28.6775 98.9796 30.5144 97.2648 30.8698L98.4825 36.745ZM76.4622 24.4283C79.4154 29.7735 82.7492 33.3749 86.5827 35.3671C90.4717 37.3883 94.5149 37.5672 98.4825 36.745L97.2648 30.8698C94.2994 31.4844 91.73 31.2803 89.3495 30.0432C86.9135 28.7772 84.3209 26.2452 81.714 21.5267L76.4622 24.4283ZM78.1865 18.8274C78.1865 19.5086 77.8596 20.1467 77.2824 20.5818L80.8938 25.3732C82.8708 23.8831 84.1865 21.5191 84.1865 18.8274H78.1865ZM75.7432 16.5672C77.1902 16.5672 78.1865 17.6751 78.1865 18.8274H84.1865C84.1865 14.1695 80.3087 10.5672 75.7432 10.5672V16.5672ZM73.3 18.8274C73.3 17.6751 74.2963 16.5672 75.7432 16.5672V10.5672C71.1778 10.5672 67.3 14.1695 67.3 18.8274H73.3ZM75.7432 21.0875C74.2963 21.0875 73.3 19.9797 73.3 18.8274H67.3C67.3 23.4853 71.1778 27.0875 75.7432 27.0875V21.0875ZM75.9969 21.0757C75.9143 21.0835 75.8297 21.0875 75.7432 21.0875V27.0875C76.0182 27.0875 76.2908 27.0746 76.5605 27.0491L75.9969 21.0757ZM73.3337 41.8496C76.6276 39.8177 78.275 36.5532 79.0114 33.3132C79.7433 30.0927 79.6468 26.633 79.2526 23.6671L73.3049 24.4577C73.6458 27.0228 73.6781 29.7065 73.1606 31.9835C72.6475 34.2409 71.6673 35.8278 70.1837 36.7429L73.3337 41.8496ZM56.2303 35.007C59.8056 38.794 63.088 40.9353 65.9296 41.9527C68.6968 42.9434 71.3011 42.9378 73.1677 41.9448L70.3496 36.6477C70.4719 36.5827 69.7491 36.9472 67.952 36.3038C66.2294 35.6871 63.7105 34.19 60.5932 30.8881L56.2303 35.007ZM56.8865 29.3473C56.8865 29.9146 56.6627 30.4428 56.2604 30.8567L60.5631 35.0384C61.9899 33.5702 62.8865 31.5656 62.8865 29.3473H56.8865ZM54.4432 27.0871C55.8902 27.0871 56.8865 28.1949 56.8865 29.3473H62.8865C62.8865 24.6894 59.0087 21.0871 54.4432 21.0871V27.0871ZM52 29.3473C52 28.1949 52.9963 27.0871 54.4432 27.0871V21.0871C49.8777 21.0871 46 24.6894 46 29.3473H52ZM54.4432 31.6074C52.9963 31.6074 52 30.4996 52 29.3473H46C46 34.0051 49.8777 37.6074 54.4432 37.6074V31.6074ZM55.4525 31.4064C55.1504 31.5338 54.8108 31.6074 54.4432 31.6074V37.6074C55.6221 37.6074 56.7536 37.3694 57.7837 36.9351L55.4525 31.4064ZM73.0009 52.0395C69.8796 45.681 63.4435 37.5304 58.897 32.2197L54.3392 36.1218C58.8816 41.4276 64.861 49.0735 67.6148 54.6834L73.0009 52.0395ZM151.917 50.3614H70.3078V56.3614H151.917V50.3614ZM162.815 32.1558C156.427 38.9786 151.264 47.877 149.223 52.0415L154.611 54.6814C156.493 50.8413 161.348 42.5022 167.195 36.2564L162.815 32.1558ZM167.094 31.6074C166.742 31.6074 166.416 31.5399 166.124 31.4226L163.886 36.9896C164.88 37.3894 165.966 37.6074 167.094 37.6074V31.6074ZM169.537 29.3473C169.537 30.4996 168.541 31.6074 167.094 31.6074V37.6074C171.659 37.6074 175.537 34.0051 175.537 29.3473H169.537ZM167.094 27.0871C168.541 27.0871 169.537 28.1949 169.537 29.3473H175.537C175.537 24.6894 171.659 21.0871 167.094 21.0871V27.0871ZM164.651 29.3473C164.651 28.1949 165.647 27.0871 167.094 27.0871V21.0871C162.528 21.0871 158.651 24.6894 158.651 29.3473H164.651ZM165.236 30.8137C164.86 30.4065 164.651 29.8961 164.651 29.3473H158.651C158.651 31.4889 159.487 33.433 160.83 34.8861L165.236 30.8137ZM155.984 42.0605C157.318 41.4982 158.924 40.3467 160.389 39.1773C161.933 37.944 163.597 36.4633 165.108 35.0165L160.958 30.6833C159.547 32.0345 158.019 33.391 156.645 34.4885C155.19 35.6498 154.15 36.3225 153.653 36.532L155.984 42.0605ZM141.709 28.8271C141.107 32.2425 141.252 35.0927 142.174 37.3881C143.131 39.7726 144.822 41.2904 146.725 42.1226C148.546 42.9186 150.458 43.0501 152.007 42.9448C153.553 42.8397 154.985 42.4818 155.984 42.0605L153.653 36.532C153.322 36.6715 152.548 36.8942 151.6 36.9586C150.656 37.0228 149.787 36.9127 149.129 36.6251C148.554 36.3737 148.068 35.9659 147.742 35.152C147.379 34.2489 147.131 32.6278 147.617 29.8683L141.709 28.8271ZM142.973 23.3026C142.592 24.7145 142.239 26.068 142 27.0813C141.883 27.5768 141.779 28.049 141.716 28.4231C141.689 28.587 141.647 28.8561 141.638 29.1374C141.635 29.2387 141.622 29.5915 141.722 30.0102C141.768 30.2076 141.899 30.6892 142.28 31.1799C142.741 31.7741 143.564 32.3477 144.663 32.3477V26.3477C145.752 26.3477 146.566 26.9165 147.02 27.5013C147.393 27.9825 147.518 28.4499 147.56 28.6287C147.651 29.01 147.636 29.3074 147.635 29.3362C147.63 29.4723 147.615 29.5278 147.633 29.4178C147.663 29.244 147.729 28.9272 147.839 28.4582C148.055 27.5424 148.388 26.2648 148.766 24.8679L142.973 23.3026ZM146.032 21.0875C146.006 21.0875 145.98 21.0872 145.954 21.0864L145.784 27.084C145.867 27.0864 145.949 27.0875 146.032 27.0875V21.0875ZM148.475 18.8274C148.475 19.9797 147.479 21.0875 146.032 21.0875V27.0875C150.597 27.0875 154.475 23.4853 154.475 18.8274H148.475ZM146.032 16.5672C147.479 16.5672 148.475 17.6751 148.475 18.8274H154.475C154.475 14.1695 150.597 10.5672 146.032 10.5672V16.5672ZM143.589 18.8274C143.589 17.6751 144.585 16.5672 146.032 16.5672V10.5672C141.466 10.5672 137.589 14.1695 137.589 18.8274H143.589ZM144.27 20.3913C143.833 19.9699 143.589 19.4188 143.589 18.8274H137.589C137.589 21.1451 138.567 23.2273 140.105 24.7103L144.27 20.3913ZM127.586 37.2363C131.914 37.0352 135.402 35.0058 138.15 32.4825C140.871 29.9847 143.024 26.8619 144.728 24.1454L139.646 20.9562C138.01 23.5629 136.202 26.126 134.093 28.0626C132.011 29.9736 129.799 31.127 127.307 31.2428L127.586 37.2363ZM127.112 37.244C127.253 37.2414 127.354 37.2395 127.447 37.2395V31.2395C127.287 31.2395 127.127 31.2427 126.997 31.2451L127.112 37.244ZM109.21 15.3069C113.021 25.4666 116.27 30.9763 119.205 33.9324C120.725 35.4626 122.217 36.368 123.702 36.8359C125.162 37.2956 126.413 37.2573 127.112 37.244L126.997 31.2451C126.316 31.2581 125.942 31.2507 125.504 31.1129C125.092 30.9832 124.414 30.6626 123.463 29.705C121.458 27.6858 118.569 23.1736 114.828 13.1997L109.21 15.3069ZM108.914 13.6556L109.045 14.6464L114.993 13.8603L114.862 12.8695L108.914 13.6556Z" fill="white" mask="url(#path-6-outside-2)"/>
<path fill-rule="evenodd" clip-rule="evenodd" d="M74.3142 72.5039L97.1962 72.2664H97.1964H107.805V159.195L97.1962 146.777V105.664H74.7301L91.7161 124.494L91.5386 140.128L51.7798 94.7245L58.7134 87.9088L58.749 87.9482L71.2927 75.3456L71.2978 75.3508L74.3142 72.5039ZM66.7284 95.0052H97.1962V82.9252H78.8074L78.7797 82.8973L66.7284 95.0052Z" fill="#C53242"/>
<path fill-rule="evenodd" clip-rule="evenodd" d="M124.073 72.2668H113.464V159.196L124.073 146.777V114.156L135.989 117.739L129.984 124.449V141.241L154.124 113.566L155.214 112.336L132.144 105.723H160.774L170.312 95.3256L170.481 95.143L170.48 95.142L170.482 95.1405L170.479 95.1405L150.377 74.9443L150.374 74.947L148.145 72.5037L124.073 72.2668H124.073ZM154.786 95.1101L124.073 95.0505V82.9257H142.462L142.491 82.899L154.786 95.1101Z" fill="#C53242"/>
</g>
<defs>
<filter id="filter0_d" x="0.105469" y="190.703" width="225.652" height="31.6562" filterUnits="userSpaceOnUse" color-interpolation-filters="sRGB">
<feFlood flood-opacity="0" result="BackgroundImageFix"/>
<feColorMatrix in="SourceAlpha" type="matrix" values="0 0 0 0 0 0 0 0 0 0 0 0 0 0 0 0 0 0 127 0" result="hardAlpha"/>
<feOffset dy="6"/>
<feGaussianBlur stdDeviation="2"/>
<feComposite in2="hardAlpha" operator="out"/>
<feColorMatrix type="matrix" values="0 0 0 0 0 0 0 0 0 0 0 0 0 0 0 0 0 0 0.3 0"/>
<feBlend mode="normal" in2="BackgroundImageFix" result="effect1_dropShadow"/>
<feBlend mode="normal" in="SourceGraphic" in2="effect1_dropShadow" result="shape"/>
</filter>
<filter id="filter1_d" x="33" y="0.046875" width="155" height="195.953" filterUnits="userSpaceOnUse" color-interpolation-filters="sRGB">
<feFlood flood-opacity="0" result="BackgroundImageFix"/>
<feColorMatrix in="SourceAlpha" type="matrix" values="0 0 0 0 0 0 0 0 0 0 0 0 0 0 0 0 0 0 127 0" result="hardAlpha"/>
<feOffset dy="14"/>
<feGaussianBlur stdDeviation="2"/>
<feComposite in2="hardAlpha" operator="out"/>
<feColorMatrix type="matrix" values="0 0 0 0 0 0 0 0 0 0 0 0 0 0 0 0 0 0 0.15 0"/>
<feBlend mode="normal" in2="BackgroundImageFix" result="effect1_dropShadow"/>
<feBlend mode="normal" in="SourceGraphic" in2="effect1_dropShadow" result="shape"/>
</filter>
</defs>
</svg>
